<?xml version="1.0" encoding="UTF-8"?>
<svg xmlns="http://www.w3.org/2000/svg" xmlns:xlink="http://www.w3.org/1999/xlink" width="325.333333" height="181.333333" viewBox="0 0 325.333333 181.333333" version="1.1">
<defs>
<clipPath id="clip1">
  <path d="M 17.332031 87 L 23.667969 87 L 23.667969 93 L 17.332031 93 Z M 17.332031 87 "/>
</clipPath>
<clipPath id="clip2">
  <path d="M 302 87 L 308.332031 87 L 308.332031 93 L 302 93 Z M 302 87 "/>
</clipPath>
</defs>
<g id="surface1">
<path style="fill:none;stroke-width:1;stroke-linecap:round;stroke-linejoin:round;stroke:rgb(0%,0%,0%);stroke-opacity:1;stroke-miterlimit:10;" d="M 471.399414 309.254883 L 549.000977 309.254883 L 549.000977 327.254883 L 471.399414 327.254883 Z M 471.399414 309.254883 " transform="matrix(1.333333,0,0,1.333333,-593.333333,-292)"/>
<path style=" stroke:none;fill-rule:nonzero;fill:rgb(0%,0%,0%);fill-opacity:1;" d="M 57.539062 136.144531 L 57.539062 127.5625 L 63.746094 127.5625 L 63.746094 128.5625 L 58.664062 128.5625 L 58.664062 131.207031 L 63.414062 131.207031 L 63.414062 132.207031 L 58.664062 132.207031 L 58.664062 135.125 L 63.933594 135.125 L 63.933594 136.144531 Z M 57.539062 136.144531 "/>
<path style=" stroke:none;fill-rule:nonzero;fill:rgb(0%,0%,0%);fill-opacity:1;" d="M 65.375 136.144531 L 65.375 129.914062 L 66.3125 129.914062 L 66.3125 130.789062 C 66.503906 130.488281 66.761719 130.242188 67.082031 130.0625 C 67.417969 129.882812 67.792969 129.789062 68.207031 129.789062 C 68.667969 129.789062 69.042969 129.890625 69.332031 130.082031 C 69.625 130.265625 69.832031 130.53125 69.957031 130.875 C 70.457031 130.15625 71.09375 129.789062 71.875 129.789062 C 72.5 129.789062 72.980469 129.96875 73.3125 130.3125 C 73.644531 130.644531 73.8125 131.164062 73.8125 131.875 L 73.8125 136.144531 L 72.75 136.144531 L 72.75 132.226562 C 72.75 131.800781 72.714844 131.492188 72.644531 131.3125 C 72.589844 131.132812 72.46875 130.988281 72.292969 130.875 C 72.109375 130.75 71.894531 130.6875 71.644531 130.6875 C 71.214844 130.6875 70.855469 130.832031 70.5625 131.125 C 70.269531 131.414062 70.125 131.882812 70.125 132.519531 L 70.125 136.144531 L 69.0625 136.144531 L 69.0625 132.101562 C 69.0625 131.632812 68.980469 131.28125 68.8125 131.039062 C 68.644531 130.804688 68.363281 130.6875 67.980469 130.6875 C 67.671875 130.6875 67.394531 130.769531 67.144531 130.9375 C 66.894531 131.09375 66.714844 131.320312 66.605469 131.625 C 66.488281 131.914062 66.4375 132.347656 66.4375 132.914062 L 66.4375 136.144531 Z M 65.375 136.144531 "/>
<path style=" stroke:none;fill-rule:nonzero;fill:rgb(0%,0%,0%);fill-opacity:1;" d="M 76.351562 136.144531 L 75.371094 136.144531 L 75.371094 127.5625 L 76.414062 127.5625 L 76.414062 130.625 C 76.855469 130.070312 77.421875 129.789062 78.121094 129.789062 C 78.507812 129.789062 78.871094 129.867188 79.203125 130.019531 C 79.546875 130.175781 79.835938 130.390625 80.058594 130.664062 C 80.277344 130.945312 80.453125 131.285156 80.578125 131.6875 C 80.703125 132.078125 80.765625 132.492188 80.765625 132.9375 C 80.765625 134.007812 80.5 134.832031 79.976562 135.414062 C 79.445312 136 78.8125 136.289062 78.078125 136.289062 C 77.339844 136.289062 76.765625 135.988281 76.351562 135.375 Z M 76.328125 132.976562 C 76.328125 133.726562 76.433594 134.269531 76.640625 134.601562 C 76.976562 135.144531 77.417969 135.414062 77.976562 135.414062 C 78.445312 135.414062 78.851562 135.21875 79.183594 134.8125 C 79.515625 134.410156 79.683594 133.8125 79.683594 133.019531 C 79.683594 132.21875 79.523438 131.617188 79.203125 131.226562 C 78.882812 130.84375 78.496094 130.644531 78.039062 130.644531 C 77.5625 130.644531 77.164062 130.847656 76.828125 131.25 C 76.496094 131.65625 76.328125 132.226562 76.328125 132.976562 Z M 76.328125 132.976562 "/>
<path style=" stroke:none;fill-rule:nonzero;fill:rgb(0%,0%,0%);fill-opacity:1;" d="M 86.296875 134.144531 L 87.398438 134.269531 C 87.21875 134.910156 86.890625 135.410156 86.421875 135.769531 C 85.960938 136.117188 85.367188 136.289062 84.648438 136.289062 C 83.742188 136.289062 83.023438 136.015625 82.484375 135.457031 C 81.953125 134.890625 81.691406 134.097656 81.691406 133.082031 C 81.691406 132.039062 81.960938 131.238281 82.503906 130.664062 C 83.046875 130.082031 83.742188 129.789062 84.609375 129.789062 C 85.441406 129.789062 86.113281 130.078125 86.628906 130.644531 C 87.15625 131.203125 87.421875 131.992188 87.421875 133.019531 C 87.421875 133.09375 87.421875 133.1875 87.421875 133.3125 L 82.773438 133.3125 C 82.816406 133.992188 83.007812 134.515625 83.359375 134.875 C 83.703125 135.238281 84.140625 135.414062 84.671875 135.414062 C 85.054688 135.414062 85.382812 135.320312 85.648438 135.125 C 85.925781 134.914062 86.140625 134.59375 86.296875 134.144531 Z M 82.835938 132.4375 L 86.316406 132.4375 C 86.273438 131.910156 86.140625 131.515625 85.921875 131.25 C 85.585938 130.847656 85.148438 130.644531 84.609375 130.644531 C 84.117188 130.644531 83.710938 130.8125 83.378906 131.144531 C 83.054688 131.46875 82.878906 131.894531 82.835938 132.4375 Z M 82.835938 132.4375 "/>
<path style=" stroke:none;fill-rule:nonzero;fill:rgb(0%,0%,0%);fill-opacity:1;" d="M 92.761719 136.144531 L 92.761719 135.351562 C 92.355469 135.976562 91.773438 136.289062 91.011719 136.289062 C 90.523438 136.289062 90.074219 136.148438 89.65625 135.875 C 89.242188 135.597656 88.914062 135.21875 88.679688 134.726562 C 88.453125 134.242188 88.34375 133.679688 88.34375 133.039062 C 88.34375 132.414062 88.449219 131.851562 88.65625 131.351562 C 88.867188 130.84375 89.167969 130.453125 89.574219 130.1875 C 89.992188 129.925781 90.453125 129.789062 90.96875 129.789062 C 91.34375 129.789062 91.679688 129.867188 91.96875 130.019531 C 92.261719 130.175781 92.496094 130.382812 92.679688 130.644531 L 92.679688 127.5625 L 93.742188 127.5625 L 93.742188 136.144531 Z M 89.429688 133.039062 C 89.429688 133.832031 89.59375 134.429688 89.929688 134.832031 C 90.261719 135.222656 90.65625 135.414062 91.117188 135.414062 C 91.574219 135.414062 91.960938 135.226562 92.28125 134.851562 C 92.617188 134.476562 92.78125 133.90625 92.78125 133.125 C 92.78125 132.28125 92.617188 131.65625 92.28125 131.25 C 91.949219 130.847656 91.542969 130.644531 91.074219 130.644531 C 90.601562 130.644531 90.203125 130.84375 89.886719 131.226562 C 89.578125 131.617188 89.429688 132.222656 89.429688 133.039062 Z M 89.429688 133.039062 "/>
<path style=" stroke:none;fill-rule:nonzero;fill:rgb(0%,0%,0%);fill-opacity:1;" d="M 99.4375 136.144531 L 99.4375 135.351562 C 99.03125 135.976562 98.445312 136.289062 97.6875 136.289062 C 97.195312 136.289062 96.75 136.148438 96.332031 135.875 C 95.914062 135.597656 95.585938 135.21875 95.351562 134.726562 C 95.128906 134.242188 95.019531 133.679688 95.019531 133.039062 C 95.019531 132.414062 95.125 131.851562 95.332031 131.351562 C 95.539062 130.84375 95.84375 130.453125 96.25 130.1875 C 96.664062 129.925781 97.128906 129.789062 97.644531 129.789062 C 98.019531 129.789062 98.351562 129.867188 98.644531 130.019531 C 98.9375 130.175781 99.171875 130.382812 99.351562 130.644531 L 99.351562 127.5625 L 100.414062 127.5625 L 100.414062 136.144531 Z M 96.101562 133.039062 C 96.101562 133.832031 96.269531 134.429688 96.601562 134.832031 C 96.9375 135.222656 97.332031 135.414062 97.789062 135.414062 C 98.25 135.414062 98.632812 135.226562 98.957031 134.851562 C 99.289062 134.476562 99.457031 133.90625 99.457031 133.125 C 99.457031 132.28125 99.289062 131.65625 98.957031 131.25 C 98.625 130.847656 98.21875 130.644531 97.75 130.644531 C 97.273438 130.644531 96.878906 130.84375 96.5625 131.226562 C 96.253906 131.617188 96.101562 132.222656 96.101562 133.039062 Z M 96.101562 133.039062 "/>
<path style=" stroke:none;fill-rule:nonzero;fill:rgb(0%,0%,0%);fill-opacity:1;" d="M 102.070312 128.769531 L 102.070312 127.5625 L 103.132812 127.5625 L 103.132812 128.769531 Z M 102.070312 136.144531 L 102.070312 129.914062 L 103.132812 129.914062 L 103.132812 136.144531 Z M 102.070312 136.144531 "/>
<path style=" stroke:none;fill-rule:nonzero;fill:rgb(0%,0%,0%);fill-opacity:1;" d="M 104.734375 136.144531 L 104.734375 129.914062 L 105.695312 129.914062 L 105.695312 130.8125 C 106.136719 130.132812 106.796875 129.789062 107.671875 129.789062 C 108.046875 129.789062 108.386719 129.863281 108.695312 130 C 109.011719 130.125 109.246094 130.300781 109.402344 130.519531 C 109.554688 130.726562 109.664062 130.988281 109.734375 131.289062 C 109.777344 131.488281 109.796875 131.828125 109.796875 132.3125 L 109.796875 136.144531 L 108.734375 136.144531 L 108.734375 132.351562 C 108.734375 131.925781 108.695312 131.601562 108.609375 131.394531 C 108.527344 131.1875 108.382812 131.019531 108.171875 130.894531 C 107.964844 130.757812 107.71875 130.6875 107.445312 130.6875 C 106.996094 130.6875 106.609375 130.832031 106.277344 131.125 C 105.953125 131.40625 105.796875 131.945312 105.796875 132.75 L 105.796875 136.144531 Z M 104.734375 136.144531 "/>
<path style=" stroke:none;fill-rule:nonzero;fill:rgb(0%,0%,0%);fill-opacity:1;" d="M 111.222656 136.664062 L 112.242188 136.8125 C 112.285156 137.128906 112.398438 137.359375 112.597656 137.5 C 112.859375 137.691406 113.222656 137.789062 113.679688 137.789062 C 114.164062 137.789062 114.539062 137.691406 114.804688 137.5 C 115.066406 137.300781 115.25 137.03125 115.347656 136.6875 C 115.398438 136.460938 115.421875 136.015625 115.410156 135.332031 C 114.953125 135.875 114.378906 136.144531 113.703125 136.144531 C 112.835938 136.144531 112.171875 135.84375 111.703125 135.226562 C 111.242188 134.601562 111.015625 133.863281 111.015625 133 C 111.015625 132.40625 111.117188 131.851562 111.328125 131.351562 C 111.546875 130.851562 111.859375 130.472656 112.265625 130.207031 C 112.664062 129.929688 113.144531 129.789062 113.703125 129.789062 C 114.4375 129.789062 115.039062 130.082031 115.515625 130.664062 L 115.515625 129.914062 L 116.492188 129.914062 L 116.492188 135.289062 C 116.492188 136.257812 116.390625 136.945312 116.179688 137.351562 C 115.984375 137.753906 115.671875 138.070312 115.242188 138.3125 C 114.828125 138.546875 114.304688 138.664062 113.679688 138.664062 C 112.929688 138.664062 112.328125 138.5 111.867188 138.164062 C 111.421875 137.832031 111.207031 137.332031 111.222656 136.664062 Z M 112.097656 132.914062 C 112.097656 133.738281 112.253906 134.332031 112.578125 134.707031 C 112.894531 135.082031 113.296875 135.269531 113.785156 135.269531 C 114.269531 135.269531 114.679688 135.082031 115.015625 134.707031 C 115.347656 134.332031 115.515625 133.75 115.515625 132.957031 C 115.515625 132.195312 115.335938 131.617188 114.992188 131.226562 C 114.660156 130.84375 114.253906 130.644531 113.785156 130.644531 C 113.3125 130.644531 112.910156 130.84375 112.578125 131.226562 C 112.253906 131.601562 112.097656 132.164062 112.097656 132.914062 Z M 112.097656 132.914062 "/>
<path style=" stroke:none;fill-rule:nonzero;fill:rgb(0%,0%,0%);fill-opacity:1;" d="M 65.464844 171.382812 L 66.527344 171.277344 C 66.578125 171.710938 66.699219 172.066406 66.882812 172.339844 C 67.074219 172.621094 67.367188 172.839844 67.757812 173.007812 C 68.140625 173.175781 68.578125 173.257812 69.070312 173.257812 C 69.496094 173.257812 69.882812 173.195312 70.214844 173.070312 C 70.546875 172.945312 70.796875 172.773438 70.964844 172.550781 C 71.132812 172.316406 71.214844 172.066406 71.214844 171.800781 C 71.214844 171.539062 71.132812 171.308594 70.964844 171.113281 C 70.808594 170.902344 70.554688 170.730469 70.195312 170.589844 C 69.96875 170.496094 69.464844 170.355469 68.671875 170.175781 C 67.882812 169.980469 67.324219 169.800781 67.007812 169.632812 C 66.601562 169.425781 66.296875 169.164062 66.089844 168.839844 C 65.890625 168.523438 65.796875 168.164062 65.796875 167.757812 C 65.796875 167.332031 65.914062 166.925781 66.152344 166.550781 C 66.402344 166.175781 66.761719 165.894531 67.234375 165.695312 C 67.703125 165.503906 68.234375 165.402344 68.820312 165.402344 C 69.453125 165.402344 70.015625 165.507812 70.507812 165.714844 C 70.992188 165.914062 71.359375 166.210938 71.609375 166.613281 C 71.871094 167.019531 72.015625 167.464844 72.046875 167.964844 L 70.945312 168.050781 C 70.886719 167.507812 70.695312 167.101562 70.359375 166.820312 C 70.027344 166.542969 69.527344 166.402344 68.859375 166.402344 C 68.179688 166.402344 67.679688 166.527344 67.359375 166.777344 C 67.039062 167.027344 66.882812 167.335938 66.882812 167.695312 C 66.882812 168.003906 66.992188 168.253906 67.214844 168.445312 C 67.433594 168.652344 68.007812 168.863281 68.921875 169.070312 C 69.851562 169.277344 70.492188 169.460938 70.839844 169.613281 C 71.339844 169.835938 71.703125 170.128906 71.945312 170.488281 C 72.179688 170.835938 72.296875 171.246094 72.296875 171.714844 C 72.296875 172.164062 72.164062 172.589844 71.902344 173.007812 C 71.636719 173.414062 71.261719 173.726562 70.777344 173.945312 C 70.289062 174.164062 69.742188 174.277344 69.132812 174.277344 C 68.351562 174.277344 67.699219 174.164062 67.171875 173.945312 C 66.640625 173.710938 66.226562 173.371094 65.921875 172.925781 C 65.632812 172.464844 65.476562 171.957031 65.464844 171.382812 Z M 65.464844 171.382812 "/>
<path style=" stroke:none;fill-rule:nonzero;fill:rgb(0%,0%,0%);fill-opacity:1;" d="M 73.324219 171.027344 C 73.324219 169.878906 73.640625 169.023438 74.28125 168.464844 C 74.824219 168.007812 75.472656 167.777344 76.238281 167.777344 C 77.097656 167.777344 77.800781 168.058594 78.34375 168.613281 C 78.886719 169.167969 79.15625 169.941406 79.15625 170.925781 C 79.15625 171.730469 79.03125 172.363281 78.78125 172.820312 C 78.542969 173.277344 78.199219 173.644531 77.738281 173.902344 C 77.28125 174.152344 76.78125 174.277344 76.238281 174.277344 C 75.363281 174.277344 74.65625 174.003906 74.113281 173.445312 C 73.582031 172.878906 73.324219 172.070312 73.324219 171.027344 Z M 74.40625 171.027344 C 74.40625 171.820312 74.578125 172.417969 74.925781 172.820312 C 75.269531 173.210938 75.707031 173.402344 76.238281 173.402344 C 76.765625 173.402344 77.203125 173.210938 77.550781 172.820312 C 77.894531 172.417969 78.074219 171.808594 78.074219 170.988281 C 78.074219 170.226562 77.894531 169.644531 77.550781 169.238281 C 77.203125 168.835938 76.765625 168.632812 76.238281 168.632812 C 75.707031 168.632812 75.269531 168.835938 74.925781 169.238281 C 74.578125 169.628906 74.40625 170.226562 74.40625 171.027344 Z M 74.40625 171.027344 "/>
<path style=" stroke:none;fill-rule:nonzero;fill:rgb(0%,0%,0%);fill-opacity:1;" d="M 84.476562 174.132812 L 84.476562 173.214844 C 83.988281 173.925781 83.332031 174.277344 82.496094 174.277344 C 82.132812 174.277344 81.792969 174.207031 81.476562 174.070312 C 81.152344 173.917969 80.914062 173.738281 80.746094 173.527344 C 80.589844 173.320312 80.488281 173.066406 80.433594 172.757812 C 80.394531 172.550781 80.371094 172.214844 80.371094 171.757812 L 80.371094 167.902344 L 81.414062 167.902344 L 81.414062 171.363281 C 81.414062 171.917969 81.441406 172.289062 81.496094 172.464844 C 81.550781 172.746094 81.683594 172.964844 81.894531 173.132812 C 82.113281 173.289062 82.382812 173.363281 82.707031 173.363281 C 83.023438 173.363281 83.320312 173.289062 83.601562 173.132812 C 83.878906 172.964844 84.070312 172.746094 84.183594 172.464844 C 84.292969 172.191406 84.351562 171.777344 84.351562 171.238281 L 84.351562 167.902344 L 85.414062 167.902344 L 85.414062 174.132812 Z M 84.476562 174.132812 "/>
<path style=" stroke:none;fill-rule:nonzero;fill:rgb(0%,0%,0%);fill-opacity:1;" d="M 87.046875 174.132812 L 87.046875 167.902344 L 88.003906 167.902344 L 88.003906 168.863281 C 88.238281 168.417969 88.464844 168.128906 88.671875 167.988281 C 88.878906 167.851562 89.109375 167.777344 89.359375 167.777344 C 89.703125 167.777344 90.066406 167.894531 90.441406 168.113281 L 90.066406 169.089844 C 89.816406 168.941406 89.558594 168.863281 89.296875 168.863281 C 89.074219 168.863281 88.863281 168.933594 88.671875 169.070312 C 88.488281 169.210938 88.359375 169.402344 88.277344 169.652344 C 88.160156 170.027344 88.109375 170.441406 88.109375 170.882812 L 88.109375 174.132812 Z M 87.046875 174.132812 "/>
<path style=" stroke:none;fill-rule:nonzero;fill:rgb(0%,0%,0%);fill-opacity:1;" d="M 95.125 171.863281 L 96.167969 171.988281 C 96.054688 172.710938 95.761719 173.273438 95.292969 173.675781 C 94.820312 174.082031 94.242188 174.277344 93.5625 174.277344 C 92.714844 174.277344 92.03125 174.003906 91.523438 173.445312 C 91.007812 172.894531 90.75 172.089844 90.75 171.050781 C 90.75 170.371094 90.859375 169.777344 91.085938 169.277344 C 91.304688 168.777344 91.636719 168.402344 92.085938 168.152344 C 92.542969 167.902344 93.042969 167.777344 93.585938 167.777344 C 94.25 167.777344 94.796875 167.957031 95.230469 168.300781 C 95.65625 168.632812 95.9375 169.113281 96.0625 169.738281 L 95.042969 169.902344 C 94.945312 169.488281 94.773438 169.175781 94.523438 168.964844 C 94.273438 168.746094 93.96875 168.632812 93.625 168.632812 C 93.085938 168.632812 92.648438 168.832031 92.3125 169.214844 C 91.992188 169.589844 91.835938 170.191406 91.835938 171.007812 C 91.835938 171.855469 91.992188 172.464844 92.3125 172.839844 C 92.632812 173.214844 93.046875 173.402344 93.5625 173.402344 C 93.980469 173.402344 94.324219 173.277344 94.605469 173.027344 C 94.882812 172.777344 95.054688 172.394531 95.125 171.863281 Z M 95.125 171.863281 "/>
<path style=" stroke:none;fill-rule:nonzero;fill:rgb(0%,0%,0%);fill-opacity:1;" d="M 101.3125 172.132812 L 102.417969 172.257812 C 102.234375 172.898438 101.90625 173.398438 101.4375 173.757812 C 100.980469 174.105469 100.386719 174.277344 99.667969 174.277344 C 98.761719 174.277344 98.042969 174.003906 97.5 173.445312 C 96.96875 172.878906 96.710938 172.085938 96.710938 171.070312 C 96.710938 170.027344 96.980469 169.226562 97.523438 168.652344 C 98.0625 168.070312 98.761719 167.777344 99.625 167.777344 C 100.460938 167.777344 101.132812 168.066406 101.648438 168.632812 C 102.171875 169.191406 102.4375 169.980469 102.4375 171.007812 C 102.4375 171.082031 102.4375 171.175781 102.4375 171.300781 L 97.792969 171.300781 C 97.835938 171.980469 98.027344 172.503906 98.375 172.863281 C 98.71875 173.226562 99.15625 173.402344 99.6875 173.402344 C 100.074219 173.402344 100.402344 173.308594 100.667969 173.113281 C 100.945312 172.902344 101.15625 172.582031 101.3125 172.132812 Z M 97.855469 170.425781 L 101.335938 170.425781 C 101.292969 169.898438 101.15625 169.503906 100.9375 169.238281 C 100.605469 168.835938 100.167969 168.632812 99.625 168.632812 C 99.136719 168.632812 98.730469 168.800781 98.398438 169.132812 C 98.074219 169.457031 97.898438 169.882812 97.855469 170.425781 Z M 97.855469 170.425781 "/>
<path style=" stroke:none;fill-rule:nonzero;fill:rgb(0%,0%,0%);fill-opacity:1;" d="M 103.320312 172.277344 L 104.363281 172.113281 C 104.414062 172.527344 104.578125 172.851562 104.84375 173.070312 C 105.117188 173.292969 105.492188 173.402344 105.96875 173.402344 C 106.453125 173.402344 106.8125 173.308594 107.050781 173.113281 C 107.285156 172.917969 107.40625 172.691406 107.40625 172.425781 C 107.40625 172.175781 107.300781 171.988281 107.09375 171.863281 C 106.9375 171.769531 106.578125 171.644531 106.007812 171.488281 C 105.226562 171.292969 104.6875 171.128906 104.382812 170.988281 C 104.09375 170.851562 103.867188 170.652344 103.71875 170.402344 C 103.5625 170.152344 103.488281 169.878906 103.488281 169.570312 C 103.488281 169.292969 103.550781 169.039062 103.675781 168.800781 C 103.800781 168.566406 103.972656 168.363281 104.195312 168.195312 C 104.363281 168.085938 104.582031 167.988281 104.863281 167.902344 C 105.15625 167.820312 105.457031 167.777344 105.78125 167.777344 C 106.265625 167.777344 106.6875 167.851562 107.050781 167.988281 C 107.425781 168.128906 107.703125 168.316406 107.882812 168.550781 C 108.0625 168.789062 108.1875 169.105469 108.257812 169.507812 L 107.21875 169.652344 C 107.175781 169.335938 107.035156 169.085938 106.800781 168.902344 C 106.578125 168.726562 106.265625 168.632812 105.863281 168.632812 C 105.375 168.632812 105.03125 168.714844 104.820312 168.882812 C 104.613281 169.039062 104.507812 169.226562 104.507812 169.445312 C 104.507812 169.585938 104.550781 169.707031 104.632812 169.800781 C 104.71875 169.925781 104.851562 170.023438 105.050781 170.089844 C 105.144531 170.132812 105.453125 170.226562 105.96875 170.363281 C 106.71875 170.558594 107.238281 170.714844 107.53125 170.839844 C 107.832031 170.964844 108.070312 171.152344 108.238281 171.402344 C 108.40625 171.644531 108.488281 171.941406 108.488281 172.300781 C 108.488281 172.664062 108.382812 172.996094 108.175781 173.300781 C 107.96875 173.605469 107.664062 173.851562 107.28125 174.027344 C 106.90625 174.195312 106.46875 174.277344 105.96875 174.277344 C 105.160156 174.277344 104.539062 174.113281 104.113281 173.777344 C 103.695312 173.433594 103.429688 172.933594 103.320312 172.277344 Z M 103.320312 172.277344 "/>
<path style="fill:none;stroke-width:1;stroke-linecap:round;stroke-linejoin:round;stroke:rgb(0%,0%,0%);stroke-opacity:1;stroke-miterlimit:10;" d="M 549.000977 286.344727 L 579.499023 286.344727 " transform="matrix(1.333333,0,0,1.333333,-593.333333,-292)"/>
<path style="fill:none;stroke-width:1;stroke-linecap:butt;stroke-linejoin:miter;stroke:rgb(0%,0%,0%);stroke-opacity:1;stroke-miterlimit:10;" d="M 583.500977 286.344727 L 579.499023 286.344727 M 579.499023 284.844727 L 583.500977 286.344727 L 579.499023 287.844727 " transform="matrix(1.333333,0,0,1.333333,-593.333333,-292)"/>
<path style="fill:none;stroke-width:1;stroke-linecap:round;stroke-linejoin:round;stroke:rgb(0%,0%,0%);stroke-opacity:1;stroke-miterlimit:10;" d="M 510.200195 339.600586 L 510.200195 333.155273 " transform="matrix(1.333333,0,0,1.333333,-593.333333,-292)"/>
<path style="fill:none;stroke-width:1;stroke-linecap:butt;stroke-linejoin:miter;stroke:rgb(0%,0%,0%);stroke-opacity:1;stroke-miterlimit:10;" d="M 510.200195 329.15625 L 510.200195 333.155273 M 508.700195 333.155273 L 510.200195 329.15625 L 511.700195 333.155273 " transform="matrix(1.333333,0,0,1.333333,-593.333333,-292)"/>
<path style=" stroke:none;fill-rule:nonzero;fill:rgb(0%,0%,0%);fill-opacity:1;" d="M 66.199219 17.332031 L 66.199219 8.75 L 72.410156 8.75 L 72.410156 9.75 L 67.324219 9.75 L 67.324219 12.394531 L 72.074219 12.394531 L 72.074219 13.394531 L 67.324219 13.394531 L 67.324219 16.3125 L 72.597656 16.3125 L 72.597656 17.332031 Z M 66.199219 17.332031 "/>
<path style=" stroke:none;fill-rule:nonzero;fill:rgb(0%,0%,0%);fill-opacity:1;" d="M 74.039062 17.332031 L 74.039062 11.105469 L 74.996094 11.105469 L 74.996094 12 C 75.4375 11.324219 76.101562 10.980469 76.976562 10.980469 C 77.351562 10.980469 77.6875 11.050781 77.996094 11.1875 C 78.3125 11.3125 78.546875 11.488281 78.703125 11.707031 C 78.855469 11.917969 78.964844 12.175781 79.039062 12.480469 C 79.078125 12.675781 79.101562 13.015625 79.101562 13.5 L 79.101562 17.332031 L 78.039062 17.332031 L 78.039062 13.542969 C 78.039062 13.113281 77.996094 12.792969 77.914062 12.582031 C 77.828125 12.375 77.683594 12.207031 77.476562 12.082031 C 77.265625 11.949219 77.023438 11.875 76.746094 11.875 C 76.296875 11.875 75.914062 12.019531 75.578125 12.3125 C 75.257812 12.59375 75.101562 13.136719 75.101562 13.9375 L 75.101562 17.332031 Z M 74.039062 17.332031 "/>
<path style=" stroke:none;fill-rule:nonzero;fill:rgb(0%,0%,0%);fill-opacity:1;" d="M 84.773438 15.0625 L 85.816406 15.1875 C 85.703125 15.910156 85.410156 16.472656 84.941406 16.875 C 84.46875 17.28125 83.890625 17.480469 83.210938 17.480469 C 82.363281 17.480469 81.679688 17.203125 81.171875 16.644531 C 80.65625 16.09375 80.398438 15.292969 80.398438 14.25 C 80.398438 13.574219 80.507812 12.980469 80.734375 12.480469 C 80.953125 11.980469 81.285156 11.605469 81.734375 11.355469 C 82.191406 11.105469 82.691406 10.980469 83.234375 10.980469 C 83.898438 10.980469 84.445312 11.15625 84.878906 11.5 C 85.304688 11.832031 85.585938 12.3125 85.710938 12.9375 L 84.691406 13.105469 C 84.59375 12.6875 84.421875 12.375 84.171875 12.167969 C 83.921875 11.949219 83.617188 11.832031 83.273438 11.832031 C 82.734375 11.832031 82.296875 12.03125 81.960938 12.417969 C 81.640625 12.792969 81.484375 13.390625 81.484375 14.207031 C 81.484375 15.058594 81.640625 15.667969 81.960938 16.042969 C 82.28125 16.417969 82.695312 16.605469 83.210938 16.605469 C 83.628906 16.605469 83.972656 16.480469 84.253906 16.230469 C 84.53125 15.980469 84.703125 15.59375 84.773438 15.0625 Z M 84.773438 15.0625 "/>
<path style=" stroke:none;fill-rule:nonzero;fill:rgb(0%,0%,0%);fill-opacity:1;" d="M 86.316406 14.230469 C 86.316406 13.078125 86.632812 12.222656 87.273438 11.667969 C 87.816406 11.207031 88.46875 10.980469 89.234375 10.980469 C 90.09375 10.980469 90.796875 11.261719 91.335938 11.8125 C 91.878906 12.371094 92.148438 13.140625 92.148438 14.125 C 92.148438 14.933594 92.023438 15.5625 91.773438 16.019531 C 91.535156 16.480469 91.191406 16.84375 90.734375 17.105469 C 90.273438 17.355469 89.773438 17.480469 89.234375 17.480469 C 88.359375 17.480469 87.648438 17.203125 87.109375 16.644531 C 86.578125 16.078125 86.316406 15.269531 86.316406 14.230469 Z M 87.398438 14.230469 C 87.398438 15.019531 87.570312 15.621094 87.921875 16.019531 C 88.265625 16.410156 88.703125 16.605469 89.234375 16.605469 C 89.757812 16.605469 90.195312 16.410156 90.546875 16.019531 C 90.890625 15.621094 91.066406 15.011719 91.066406 14.1875 C 91.066406 13.425781 90.890625 12.84375 90.546875 12.4375 C 90.195312 12.035156 89.757812 11.832031 89.234375 11.832031 C 88.703125 11.832031 88.265625 12.035156 87.921875 12.4375 C 87.570312 12.828125 87.398438 13.425781 87.398438 14.230469 Z M 87.398438 14.230469 "/>
<path style=" stroke:none;fill-rule:nonzero;fill:rgb(0%,0%,0%);fill-opacity:1;" d="M 97.429688 17.332031 L 97.429688 16.542969 C 97.023438 17.167969 96.4375 17.480469 95.679688 17.480469 C 95.1875 17.480469 94.742188 17.339844 94.324219 17.0625 C 93.90625 16.785156 93.578125 16.40625 93.34375 15.917969 C 93.121094 15.433594 93.011719 14.871094 93.011719 14.230469 C 93.011719 13.605469 93.117188 13.042969 93.324219 12.542969 C 93.53125 12.03125 93.835938 11.640625 94.242188 11.375 C 94.65625 11.113281 95.121094 10.980469 95.636719 10.980469 C 96.011719 10.980469 96.34375 11.058594 96.636719 11.207031 C 96.929688 11.363281 97.164062 11.574219 97.34375 11.832031 L 97.34375 8.75 L 98.40625 8.75 L 98.40625 17.332031 Z M 94.09375 14.230469 C 94.09375 15.019531 94.261719 15.621094 94.59375 16.019531 C 94.929688 16.410156 95.324219 16.605469 95.78125 16.605469 C 96.242188 16.605469 96.625 16.417969 96.949219 16.042969 C 97.28125 15.667969 97.449219 15.09375 97.449219 14.3125 C 97.449219 13.46875 97.28125 12.84375 96.949219 12.4375 C 96.617188 12.035156 96.210938 11.832031 95.742188 11.832031 C 95.265625 11.832031 94.871094 12.03125 94.554688 12.417969 C 94.246094 12.808594 94.09375 13.410156 94.09375 14.230469 Z M 94.09375 14.230469 "/>
<path style=" stroke:none;fill-rule:nonzero;fill:rgb(0%,0%,0%);fill-opacity:1;" d="M 104.3125 15.332031 L 105.414062 15.457031 C 105.234375 16.097656 104.90625 16.597656 104.4375 16.957031 C 103.976562 17.308594 103.382812 17.480469 102.664062 17.480469 C 101.757812 17.480469 101.039062 17.203125 100.5 16.644531 C 99.96875 16.078125 99.707031 15.285156 99.707031 14.269531 C 99.707031 13.230469 99.976562 12.425781 100.519531 11.855469 C 101.0625 11.269531 101.757812 10.980469 102.625 10.980469 C 103.457031 10.980469 104.128906 11.265625 104.644531 11.832031 C 105.171875 12.390625 105.4375 13.183594 105.4375 14.207031 C 105.4375 14.28125 105.4375 14.375 105.4375 14.5 L 100.789062 14.5 C 100.832031 15.183594 101.023438 15.703125 101.375 16.0625 C 101.71875 16.425781 102.15625 16.605469 102.6875 16.605469 C 103.070312 16.605469 103.398438 16.511719 103.664062 16.3125 C 103.941406 16.105469 104.15625 15.78125 104.3125 15.332031 Z M 100.851562 13.625 L 104.332031 13.625 C 104.289062 13.097656 104.15625 12.703125 103.9375 12.4375 C 103.601562 12.035156 103.164062 11.832031 102.625 11.832031 C 102.132812 11.832031 101.726562 12 101.394531 12.332031 C 101.070312 12.65625 100.894531 13.082031 100.851562 13.625 Z M 100.851562 13.625 "/>
<path style=" stroke:none;fill-rule:nonzero;fill:rgb(0%,0%,0%);fill-opacity:1;" d="M 106.714844 17.332031 L 106.714844 11.105469 L 107.671875 11.105469 L 107.671875 12.0625 C 107.90625 11.621094 108.132812 11.328125 108.339844 11.1875 C 108.546875 11.050781 108.777344 10.980469 109.027344 10.980469 C 109.371094 10.980469 109.734375 11.09375 110.109375 11.3125 L 109.734375 12.292969 C 109.484375 12.140625 109.226562 12.0625 108.964844 12.0625 C 108.742188 12.0625 108.53125 12.136719 108.339844 12.269531 C 108.15625 12.410156 108.027344 12.605469 107.945312 12.855469 C 107.828125 13.230469 107.777344 13.640625 107.777344 14.082031 L 107.777344 17.332031 Z M 106.714844 17.332031 "/>
<path style=" stroke:none;fill-rule:nonzero;fill:rgb(0%,0%,0%);fill-opacity:1;" d="M 215.703125 17.332031 L 215.703125 8.75 L 218.664062 8.75 C 219.339844 8.75 219.855469 8.792969 220.203125 8.875 C 220.6875 8.988281 221.105469 9.1875 221.453125 9.480469 C 221.914062 9.871094 222.25 10.363281 222.476562 10.957031 C 222.695312 11.542969 222.808594 12.222656 222.808594 13 C 222.808594 13.65625 222.730469 14.230469 222.578125 14.730469 C 222.421875 15.230469 222.230469 15.644531 221.996094 15.980469 C 221.757812 16.3125 221.496094 16.578125 221.203125 16.769531 C 220.921875 16.953125 220.585938 17.09375 220.183594 17.1875 C 219.792969 17.285156 219.335938 17.332031 218.808594 17.332031 Z M 216.851562 16.3125 L 218.683594 16.3125 C 219.25 16.3125 219.695312 16.265625 220.015625 16.167969 C 220.335938 16.058594 220.589844 15.90625 220.789062 15.707031 C 221.046875 15.449219 221.257812 15.082031 221.414062 14.625 C 221.5625 14.167969 221.640625 13.621094 221.640625 12.980469 C 221.640625 12.078125 221.496094 11.390625 221.203125 10.917969 C 220.914062 10.433594 220.546875 10.105469 220.121094 9.9375 C 219.8125 9.8125 219.328125 9.75 218.664062 9.75 L 216.851562 9.75 Z M 216.851562 16.3125 "/>
<path style=" stroke:none;fill-rule:nonzero;fill:rgb(0%,0%,0%);fill-opacity:1;" d="M 228.496094 15.332031 L 229.601562 15.457031 C 229.417969 16.097656 229.089844 16.597656 228.621094 16.957031 C 228.164062 17.308594 227.570312 17.480469 226.851562 17.480469 C 225.945312 17.480469 225.226562 17.203125 224.683594 16.644531 C 224.152344 16.078125 223.890625 15.285156 223.890625 14.269531 C 223.890625 13.230469 224.164062 12.425781 224.703125 11.855469 C 225.246094 11.269531 225.945312 10.980469 226.808594 10.980469 C 227.640625 10.980469 228.3125 11.265625 228.828125 11.832031 C 229.355469 12.390625 229.621094 13.183594 229.621094 14.207031 C 229.621094 14.28125 229.621094 14.375 229.621094 14.5 L 224.976562 14.5 C 225.015625 15.183594 225.210938 15.703125 225.558594 16.0625 C 225.902344 16.425781 226.339844 16.605469 226.871094 16.605469 C 227.257812 16.605469 227.585938 16.511719 227.851562 16.3125 C 228.125 16.105469 228.339844 15.78125 228.496094 15.332031 Z M 225.039062 13.625 L 228.515625 13.625 C 228.476562 13.097656 228.339844 12.703125 228.121094 12.4375 C 227.789062 12.035156 227.351562 11.832031 226.808594 11.832031 C 226.320312 11.832031 225.914062 12 225.578125 12.332031 C 225.257812 12.65625 225.078125 13.082031 225.039062 13.625 Z M 225.039062 13.625 "/>
<path style=" stroke:none;fill-rule:nonzero;fill:rgb(0%,0%,0%);fill-opacity:1;" d="M 234.984375 15.0625 L 236.023438 15.1875 C 235.910156 15.910156 235.617188 16.472656 235.148438 16.875 C 234.675781 17.28125 234.097656 17.480469 233.421875 17.480469 C 232.570312 17.480469 231.890625 17.203125 231.378906 16.644531 C 230.863281 16.09375 230.609375 15.292969 230.609375 14.25 C 230.609375 13.574219 230.71875 12.980469 230.941406 12.480469 C 231.160156 11.980469 231.492188 11.605469 231.941406 11.355469 C 232.398438 11.105469 232.898438 10.980469 233.441406 10.980469 C 234.109375 10.980469 234.65625 11.15625 235.085938 11.5 C 235.515625 11.832031 235.796875 12.3125 235.921875 12.9375 L 234.898438 13.105469 C 234.800781 12.6875 234.628906 12.375 234.378906 12.167969 C 234.128906 11.949219 233.828125 11.832031 233.484375 11.832031 C 232.941406 11.832031 232.503906 12.03125 232.171875 12.417969 C 231.847656 12.792969 231.691406 13.390625 231.691406 14.207031 C 231.691406 15.058594 231.847656 15.667969 232.171875 16.042969 C 232.488281 16.417969 232.90625 16.605469 233.421875 16.605469 C 233.835938 16.605469 234.179688 16.480469 234.460938 16.230469 C 234.738281 15.980469 234.910156 15.59375 234.984375 15.0625 Z M 234.984375 15.0625 "/>
<path style=" stroke:none;fill-rule:nonzero;fill:rgb(0%,0%,0%);fill-opacity:1;" d="M 236.523438 14.230469 C 236.523438 13.078125 236.84375 12.222656 237.484375 11.667969 C 238.023438 11.207031 238.675781 10.980469 239.441406 10.980469 C 240.300781 10.980469 241.003906 11.261719 241.546875 11.8125 C 242.085938 12.371094 242.359375 13.140625 242.359375 14.125 C 242.359375 14.933594 242.234375 15.5625 241.984375 16.019531 C 241.742188 16.480469 241.398438 16.84375 240.941406 17.105469 C 240.484375 17.355469 239.984375 17.480469 239.441406 17.480469 C 238.566406 17.480469 237.859375 17.203125 237.316406 16.644531 C 236.785156 16.078125 236.523438 15.269531 236.523438 14.230469 Z M 237.609375 14.230469 C 237.609375 15.019531 237.78125 15.621094 238.128906 16.019531 C 238.472656 16.410156 238.910156 16.605469 239.441406 16.605469 C 239.96875 16.605469 240.40625 16.410156 240.753906 16.019531 C 241.097656 15.621094 241.273438 15.011719 241.273438 14.1875 C 241.273438 13.425781 241.097656 12.84375 240.753906 12.4375 C 240.40625 12.035156 239.96875 11.832031 239.441406 11.832031 C 238.910156 11.832031 238.472656 12.035156 238.128906 12.4375 C 237.78125 12.828125 237.609375 13.425781 237.609375 14.230469 Z M 237.609375 14.230469 "/>
<path style=" stroke:none;fill-rule:nonzero;fill:rgb(0%,0%,0%);fill-opacity:1;" d="M 247.636719 17.332031 L 247.636719 16.542969 C 247.230469 17.167969 246.648438 17.480469 245.886719 17.480469 C 245.398438 17.480469 244.949219 17.339844 244.53125 17.0625 C 244.117188 16.785156 243.789062 16.40625 243.554688 15.917969 C 243.328125 15.433594 243.21875 14.871094 243.21875 14.230469 C 243.21875 13.605469 243.324219 13.042969 243.53125 12.542969 C 243.742188 12.03125 244.042969 11.640625 244.449219 11.375 C 244.867188 11.113281 245.328125 10.980469 245.84375 10.980469 C 246.21875 10.980469 246.554688 11.058594 246.84375 11.207031 C 247.136719 11.363281 247.371094 11.574219 247.554688 11.832031 L 247.554688 8.75 L 248.617188 8.75 L 248.617188 17.332031 Z M 244.304688 14.230469 C 244.304688 15.019531 244.46875 15.621094 244.804688 16.019531 C 245.136719 16.410156 245.53125 16.605469 245.992188 16.605469 C 246.449219 16.605469 246.835938 16.417969 247.15625 16.042969 C 247.492188 15.667969 247.65625 15.09375 247.65625 14.3125 C 247.65625 13.46875 247.492188 12.84375 247.15625 12.4375 C 246.824219 12.035156 246.417969 11.832031 245.949219 11.832031 C 245.476562 11.832031 245.078125 12.03125 244.761719 12.417969 C 244.453125 12.808594 244.304688 13.410156 244.304688 14.230469 Z M 244.304688 14.230469 "/>
<path style=" stroke:none;fill-rule:nonzero;fill:rgb(0%,0%,0%);fill-opacity:1;" d="M 254.519531 15.332031 L 255.625 15.457031 C 255.441406 16.097656 255.113281 16.597656 254.644531 16.957031 C 254.1875 17.308594 253.59375 17.480469 252.875 17.480469 C 251.96875 17.480469 251.25 17.203125 250.707031 16.644531 C 250.175781 16.078125 249.914062 15.285156 249.914062 14.269531 C 249.914062 13.230469 250.1875 12.425781 250.726562 11.855469 C 251.269531 11.269531 251.96875 10.980469 252.832031 10.980469 C 253.664062 10.980469 254.335938 11.265625 254.851562 11.832031 C 255.378906 12.390625 255.644531 13.183594 255.644531 14.207031 C 255.644531 14.28125 255.644531 14.375 255.644531 14.5 L 251 14.5 C 251.039062 15.183594 251.234375 15.703125 251.582031 16.0625 C 251.925781 16.425781 252.363281 16.605469 252.894531 16.605469 C 253.28125 16.605469 253.609375 16.511719 253.875 16.3125 C 254.148438 16.105469 254.363281 15.78125 254.519531 15.332031 Z M 251.0625 13.625 L 254.539062 13.625 C 254.5 13.097656 254.363281 12.703125 254.144531 12.4375 C 253.8125 12.035156 253.375 11.832031 252.832031 11.832031 C 252.34375 11.832031 251.9375 12 251.601562 12.332031 C 251.28125 12.65625 251.101562 13.082031 251.0625 13.625 Z M 251.0625 13.625 "/>
<path style=" stroke:none;fill-rule:nonzero;fill:rgb(0%,0%,0%);fill-opacity:1;" d="M 256.921875 17.332031 L 256.921875 11.105469 L 257.882812 11.105469 L 257.882812 12.0625 C 258.117188 11.621094 258.339844 11.328125 258.546875 11.1875 C 258.757812 11.050781 258.984375 10.980469 259.234375 10.980469 C 259.578125 10.980469 259.945312 11.09375 260.320312 11.3125 L 259.945312 12.292969 C 259.695312 12.140625 259.433594 12.0625 259.171875 12.0625 C 258.949219 12.0625 258.742188 12.136719 258.546875 12.269531 C 258.367188 12.410156 258.234375 12.605469 258.152344 12.855469 C 258.039062 13.230469 257.984375 13.640625 257.984375 14.082031 L 257.984375 17.332031 Z M 256.921875 17.332031 "/>
<path style="fill-rule:nonzero;fill:rgb(69.803923%,85.09804%,100%);fill-opacity:1;stroke-width:1;stroke-linecap:round;stroke-linejoin:round;stroke:rgb(0%,0%,0%);stroke-opacity:1;stroke-miterlimit:10;" d="M 471.399414 277.344727 L 549.000977 277.344727 L 549.000977 295.344727 L 471.399414 295.344727 Z M 471.399414 277.344727 " transform="matrix(1.333333,0,0,1.333333,-593.333333,-292)"/>
<path style=" stroke:none;fill-rule:nonzero;fill:rgb(0%,0%,0%);fill-opacity:1;" d="M 61.527344 93.597656 L 61.527344 85.011719 L 65.339844 85.011719 C 66.101562 85.011719 66.683594 85.089844 67.089844 85.242188 C 67.492188 85.398438 67.808594 85.667969 68.046875 86.054688 C 68.28125 86.445312 68.402344 86.878906 68.402344 87.347656 C 68.402344 87.960938 68.199219 88.472656 67.796875 88.886719 C 67.40625 89.304688 66.804688 89.570312 65.984375 89.679688 C 66.277344 89.835938 66.507812 89.980469 66.671875 90.117188 C 67.007812 90.425781 67.320312 90.804688 67.609375 91.261719 L 69.109375 93.597656 L 67.671875 93.597656 L 66.527344 91.804688 C 66.203125 91.292969 65.933594 90.902344 65.714844 90.636719 C 65.507812 90.363281 65.308594 90.167969 65.132812 90.054688 C 64.964844 89.945312 64.796875 89.867188 64.632812 89.824219 C 64.492188 89.800781 64.277344 89.785156 63.984375 89.785156 L 62.671875 89.785156 L 62.671875 93.597656 Z M 62.671875 88.804688 L 65.109375 88.804688 C 65.636719 88.804688 66.046875 88.753906 66.339844 88.636719 C 66.632812 88.527344 66.851562 88.355469 67.007812 88.117188 C 67.15625 87.882812 67.234375 87.628906 67.234375 87.347656 C 67.234375 86.945312 67.078125 86.613281 66.777344 86.347656 C 66.484375 86.085938 66.015625 85.949219 65.382812 85.949219 L 62.671875 85.949219 Z M 62.671875 88.804688 "/>
<path style=" stroke:none;fill-rule:nonzero;fill:rgb(0%,0%,0%);fill-opacity:1;" d="M 74.296875 91.597656 L 75.402344 91.722656 C 75.21875 92.363281 74.890625 92.863281 74.421875 93.222656 C 73.964844 93.570312 73.371094 93.742188 72.652344 93.742188 C 71.746094 93.742188 71.027344 93.464844 70.484375 92.910156 C 69.953125 92.339844 69.695312 91.550781 69.695312 90.535156 C 69.695312 89.492188 69.964844 88.691406 70.507812 88.117188 C 71.046875 87.535156 71.746094 87.242188 72.609375 87.242188 C 73.445312 87.242188 74.117188 87.527344 74.632812 88.097656 C 75.15625 88.652344 75.421875 89.445312 75.421875 90.472656 C 75.421875 90.542969 75.421875 90.636719 75.421875 90.761719 L 70.777344 90.761719 C 70.820312 91.445312 71.011719 91.964844 71.359375 92.324219 C 71.703125 92.691406 72.140625 92.867188 72.671875 92.867188 C 73.058594 92.867188 73.386719 92.773438 73.652344 92.574219 C 73.929688 92.367188 74.140625 92.042969 74.296875 91.597656 Z M 70.839844 89.886719 L 74.320312 89.886719 C 74.277344 89.363281 74.140625 88.964844 73.921875 88.699219 C 73.589844 88.300781 73.152344 88.097656 72.609375 88.097656 C 72.121094 88.097656 71.714844 88.261719 71.382812 88.597656 C 71.058594 88.917969 70.882812 89.347656 70.839844 89.886719 Z M 70.839844 89.886719 "/>
<path style=" stroke:none;fill-rule:nonzero;fill:rgb(0%,0%,0%);fill-opacity:1;" d="M 80.785156 91.324219 L 81.828125 91.449219 C 81.710938 92.175781 81.421875 92.738281 80.953125 93.136719 C 80.476562 93.542969 79.898438 93.742188 79.222656 93.742188 C 78.375 93.742188 77.691406 93.464844 77.179688 92.910156 C 76.664062 92.355469 76.410156 91.554688 76.410156 90.511719 C 76.410156 89.835938 76.519531 89.242188 76.742188 88.742188 C 76.960938 88.242188 77.296875 87.867188 77.742188 87.617188 C 78.203125 87.367188 78.703125 87.242188 79.242188 87.242188 C 79.910156 87.242188 80.457031 87.417969 80.890625 87.761719 C 81.316406 88.097656 81.597656 88.574219 81.722656 89.199219 L 80.703125 89.367188 C 80.601562 88.949219 80.429688 88.636719 80.179688 88.429688 C 79.929688 88.210938 79.628906 88.097656 79.285156 88.097656 C 78.742188 88.097656 78.304688 88.292969 77.972656 88.679688 C 77.648438 89.054688 77.492188 89.652344 77.492188 90.472656 C 77.492188 91.320312 77.648438 91.929688 77.972656 92.304688 C 78.289062 92.679688 78.707031 92.867188 79.222656 92.867188 C 79.640625 92.867188 79.984375 92.742188 80.265625 92.492188 C 80.539062 92.242188 80.710938 91.855469 80.785156 91.324219 Z M 80.785156 91.324219 "/>
<path style=" stroke:none;fill-rule:nonzero;fill:rgb(0%,0%,0%);fill-opacity:1;" d="M 86.804688 93.597656 L 86.804688 92.679688 C 86.316406 93.386719 85.660156 93.742188 84.828125 93.742188 C 84.460938 93.742188 84.125 93.667969 83.804688 93.535156 C 83.484375 93.382812 83.242188 93.199219 83.078125 92.992188 C 82.921875 92.785156 82.816406 92.527344 82.765625 92.222656 C 82.722656 92.011719 82.703125 91.679688 82.703125 91.222656 L 82.703125 87.367188 L 83.742188 87.367188 L 83.742188 90.824219 C 83.742188 91.382812 83.769531 91.753906 83.828125 91.929688 C 83.878906 92.210938 84.015625 92.429688 84.222656 92.597656 C 84.441406 92.753906 84.710938 92.824219 85.035156 92.824219 C 85.351562 92.824219 85.648438 92.753906 85.929688 92.597656 C 86.207031 92.429688 86.398438 92.210938 86.515625 91.929688 C 86.625 91.652344 86.679688 91.242188 86.679688 90.699219 L 86.679688 87.367188 L 87.742188 87.367188 L 87.742188 93.597656 Z M 86.804688 93.597656 "/>
<path style=" stroke:none;fill-rule:nonzero;fill:rgb(0%,0%,0%);fill-opacity:1;" d="M 89.375 93.597656 L 89.375 87.367188 L 90.335938 87.367188 L 90.335938 88.324219 C 90.570312 87.882812 90.792969 87.589844 91 87.449219 C 91.210938 87.316406 91.4375 87.242188 91.6875 87.242188 C 92.03125 87.242188 92.398438 87.355469 92.773438 87.574219 L 92.398438 88.554688 C 92.148438 88.402344 91.886719 88.324219 91.625 88.324219 C 91.402344 88.324219 91.195312 88.398438 91 88.535156 C 90.820312 88.675781 90.6875 88.867188 90.605469 89.117188 C 90.492188 89.492188 90.4375 89.902344 90.4375 90.347656 L 90.4375 93.597656 Z M 89.375 93.597656 "/>
<path style=" stroke:none;fill-rule:nonzero;fill:rgb(0%,0%,0%);fill-opacity:1;" d="M 93.371094 93.597656 L 93.371094 87.367188 L 94.332031 87.367188 L 94.332031 88.324219 C 94.566406 87.882812 94.789062 87.589844 94.996094 87.449219 C 95.207031 87.316406 95.433594 87.242188 95.683594 87.242188 C 96.027344 87.242188 96.394531 87.355469 96.769531 87.574219 L 96.394531 88.554688 C 96.144531 88.402344 95.882812 88.324219 95.621094 88.324219 C 95.398438 88.324219 95.191406 88.398438 94.996094 88.535156 C 94.816406 88.675781 94.683594 88.867188 94.601562 89.117188 C 94.488281 89.492188 94.433594 89.902344 94.433594 90.347656 L 94.433594 93.597656 Z M 93.371094 93.597656 "/>
<path style=" stroke:none;fill-rule:nonzero;fill:rgb(0%,0%,0%);fill-opacity:1;" d="M 101.640625 91.597656 L 102.742188 91.722656 C 102.5625 92.363281 102.234375 92.863281 101.765625 93.222656 C 101.304688 93.570312 100.710938 93.742188 99.992188 93.742188 C 99.085938 93.742188 98.367188 93.464844 97.828125 92.910156 C 97.296875 92.339844 97.035156 91.550781 97.035156 90.535156 C 97.035156 89.492188 97.304688 88.691406 97.847656 88.117188 C 98.390625 87.535156 99.085938 87.242188 99.953125 87.242188 C 100.785156 87.242188 101.457031 87.527344 101.972656 88.097656 C 102.5 88.652344 102.765625 89.445312 102.765625 90.472656 C 102.765625 90.542969 102.765625 90.636719 102.765625 90.761719 L 98.117188 90.761719 C 98.160156 91.445312 98.351562 91.964844 98.703125 92.324219 C 99.046875 92.691406 99.484375 92.867188 100.015625 92.867188 C 100.398438 92.867188 100.726562 92.773438 100.992188 92.574219 C 101.269531 92.367188 101.484375 92.042969 101.640625 91.597656 Z M 98.179688 89.886719 L 101.660156 89.886719 C 101.617188 89.363281 101.484375 88.964844 101.265625 88.699219 C 100.929688 88.300781 100.492188 88.097656 99.953125 88.097656 C 99.460938 88.097656 99.054688 88.261719 98.722656 88.597656 C 98.398438 88.917969 98.222656 89.347656 98.179688 89.886719 Z M 98.179688 89.886719 "/>
<path style=" stroke:none;fill-rule:nonzero;fill:rgb(0%,0%,0%);fill-opacity:1;" d="M 104.0625 93.597656 L 104.0625 87.367188 L 105.023438 87.367188 L 105.023438 88.261719 C 105.464844 87.585938 106.125 87.242188 107 87.242188 C 107.375 87.242188 107.714844 87.316406 108.023438 87.449219 C 108.339844 87.574219 108.574219 87.753906 108.730469 87.972656 C 108.882812 88.179688 108.992188 88.441406 109.0625 88.742188 C 109.105469 88.941406 109.125 89.277344 109.125 89.761719 L 109.125 93.597656 L 108.0625 93.597656 L 108.0625 89.804688 C 108.0625 89.378906 108.023438 89.054688 107.9375 88.847656 C 107.855469 88.636719 107.710938 88.472656 107.5 88.347656 C 107.292969 88.210938 107.046875 88.136719 106.773438 88.136719 C 106.324219 88.136719 105.9375 88.285156 105.605469 88.574219 C 105.28125 88.855469 105.125 89.398438 105.125 90.199219 L 105.125 93.597656 Z M 104.0625 93.597656 "/>
<path style=" stroke:none;fill-rule:nonzero;fill:rgb(0%,0%,0%);fill-opacity:1;" d="M 113.050781 92.660156 L 113.195312 93.574219 C 112.890625 93.644531 112.625 93.679688 112.40625 93.679688 C 112.015625 93.679688 111.71875 93.617188 111.507812 93.492188 C 111.300781 93.367188 111.144531 93.210938 111.050781 93.011719 C 110.96875 92.820312 110.925781 92.410156 110.925781 91.785156 L 110.925781 88.199219 L 110.15625 88.199219 L 110.15625 87.367188 L 110.925781 87.367188 L 110.925781 85.824219 L 111.988281 85.199219 L 111.988281 87.367188 L 113.050781 87.367188 L 113.050781 88.199219 L 111.988281 88.199219 L 111.988281 91.824219 C 111.988281 92.132812 112 92.324219 112.03125 92.410156 C 112.070312 92.492188 112.132812 92.566406 112.21875 92.617188 C 112.300781 92.675781 112.414062 92.699219 112.570312 92.699219 C 112.695312 92.699219 112.851562 92.691406 113.050781 92.660156 Z M 113.050781 92.660156 "/>
<path style=" stroke:none;fill-rule:nonzero;fill:rgb(0%,0%,0%);fill-opacity:1;" d="M 13.253906 91.730469 C 13.171875 91.835938 13.085938 91.9375 13.003906 92.042969 C 12.648438 92.480469 12.441406 92.667969 12.273438 92.667969 C 12.128906 92.667969 12.085938 92.5625 12.085938 92.460938 C 12.085938 92.355469 12.128906 92.148438 12.253906 91.730469 L 12.921875 89.292969 C 12.984375 89.042969 13.046875 88.773438 13.046875 88.5625 C 13.046875 88.125 12.773438 87.835938 12.253906 87.835938 C 11.484375 87.835938 10.691406 88.5625 9.484375 90.480469 L 10.296875 87.855469 L 10.234375 87.835938 C 9.609375 87.960938 9.273438 88.023438 8.296875 88.210938 L 8.296875 88.398438 C 8.898438 88.417969 9.085938 88.480469 9.085938 88.730469 C 9.085938 88.792969 9.066406 88.875 9.046875 88.917969 L 7.898438 93.125 L 8.796875 93.125 C 9.359375 91.230469 9.460938 90.960938 10.003906 90.148438 C 10.753906 89.042969 11.296875 88.4375 11.773438 88.4375 C 11.960938 88.4375 12.066406 88.585938 12.066406 88.792969 C 12.066406 88.9375 11.984375 89.375 11.898438 89.75 L 11.378906 91.6875 C 11.191406 92.3125 11.171875 92.460938 11.171875 92.585938 C 11.171875 93.042969 11.441406 93.230469 11.734375 93.230469 C 12.296875 93.230469 12.609375 93 13.421875 91.875 Z M 13.253906 91.730469 "/>
<g clip-path="url(#clip1)" clip-rule="nonzero">
<path style=" stroke:none;fill-rule:nonzero;fill:rgb(0%,0%,0%);fill-opacity:1;" d="M 20.816406 89.984375 L 23.191406 87.609375 C 23.316406 87.460938 23.359375 87.441406 23.359375 87.359375 C 23.359375 87.210938 23.234375 87.109375 23.109375 87.109375 C 23.023438 87.109375 22.960938 87.148438 22.859375 87.273438 L 20.460938 89.648438 L 18.066406 87.273438 C 17.941406 87.128906 17.898438 87.109375 17.816406 87.109375 C 17.691406 87.109375 17.566406 87.210938 17.566406 87.359375 C 17.566406 87.441406 17.628906 87.503906 17.734375 87.609375 L 20.109375 89.984375 L 17.734375 92.378906 C 17.609375 92.484375 17.566406 92.566406 17.566406 92.628906 C 17.566406 92.773438 17.691406 92.878906 17.816406 92.878906 C 17.898438 92.878906 17.941406 92.859375 18.066406 92.710938 L 20.460938 90.335938 L 22.859375 92.710938 C 22.960938 92.835938 23.046875 92.878906 23.109375 92.878906 C 23.253906 92.878906 23.359375 92.773438 23.359375 92.628906 C 23.359375 92.546875 23.316406 92.523438 23.191406 92.378906 Z M 20.816406 89.984375 "/>
<path style=" stroke:none;fill-rule:nonzero;fill:rgb(0%,0%,0%);fill-opacity:1;" d="M 20.816406 89.984375 L 23.191406 87.609375 C 23.316406 87.460938 23.359375 87.441406 23.359375 87.359375 C 23.359375 87.210938 23.234375 87.109375 23.109375 87.109375 C 23.023438 87.109375 22.960938 87.148438 22.859375 87.273438 L 20.460938 89.648438 L 18.066406 87.273438 C 17.941406 87.128906 17.898438 87.109375 17.816406 87.109375 C 17.691406 87.109375 17.566406 87.210938 17.566406 87.359375 C 17.566406 87.441406 17.628906 87.503906 17.734375 87.609375 L 20.109375 89.984375 L 17.734375 92.378906 C 17.609375 92.484375 17.566406 92.566406 17.566406 92.628906 C 17.566406 92.773438 17.691406 92.878906 17.816406 92.878906 C 17.898438 92.878906 17.941406 92.859375 18.066406 92.710938 L 20.460938 90.335938 L 22.859375 92.710938 C 22.960938 92.835938 23.046875 92.878906 23.109375 92.878906 C 23.253906 92.878906 23.359375 92.773438 23.359375 92.628906 C 23.359375 92.546875 23.316406 92.523438 23.191406 92.378906 Z M 20.816406 89.984375 "/>
</g>
<path style="fill:none;stroke-width:1;stroke-linecap:round;stroke-linejoin:round;stroke:rgb(0%,0%,0%);stroke-opacity:1;stroke-miterlimit:10;" d="M 510.200195 309.254883 L 510.200195 301.245117 " transform="matrix(1.333333,0,0,1.333333,-593.333333,-292)"/>
<path style="fill:none;stroke-width:1;stroke-linecap:butt;stroke-linejoin:miter;stroke:rgb(0%,0%,0%);stroke-opacity:1;stroke-miterlimit:10;" d="M 510.200195 297.246094 L 510.200195 301.245117 M 508.700195 301.245117 L 510.200195 297.246094 L 511.700195 301.245117 " transform="matrix(1.333333,0,0,1.333333,-593.333333,-292)"/>
<path style="fill:none;stroke-width:1;stroke-linecap:round;stroke-linejoin:round;stroke:rgb(0%,0%,0%);stroke-opacity:1;stroke-miterlimit:10;" d="M 585.399414 309.254883 L 663.000977 309.254883 L 663.000977 327.254883 L 585.399414 327.254883 Z M 585.399414 309.254883 " transform="matrix(1.333333,0,0,1.333333,-593.333333,-292)"/>
<path style=" stroke:none;fill-rule:nonzero;fill:rgb(0%,0%,0%);fill-opacity:1;" d="M 209.539062 136.144531 L 209.539062 127.5625 L 215.746094 127.5625 L 215.746094 128.5625 L 210.664062 128.5625 L 210.664062 131.207031 L 215.414062 131.207031 L 215.414062 132.207031 L 210.664062 132.207031 L 210.664062 135.125 L 215.933594 135.125 L 215.933594 136.144531 Z M 209.539062 136.144531 "/>
<path style=" stroke:none;fill-rule:nonzero;fill:rgb(0%,0%,0%);fill-opacity:1;" d="M 217.375 136.144531 L 217.375 129.914062 L 218.3125 129.914062 L 218.3125 130.789062 C 218.503906 130.488281 218.761719 130.242188 219.082031 130.0625 C 219.417969 129.882812 219.792969 129.789062 220.207031 129.789062 C 220.667969 129.789062 221.042969 129.890625 221.332031 130.082031 C 221.625 130.265625 221.832031 130.53125 221.957031 130.875 C 222.457031 130.15625 223.09375 129.789062 223.875 129.789062 C 224.5 129.789062 224.980469 129.96875 225.3125 130.3125 C 225.644531 130.644531 225.8125 131.164062 225.8125 131.875 L 225.8125 136.144531 L 224.75 136.144531 L 224.75 132.226562 C 224.75 131.800781 224.714844 131.492188 224.644531 131.3125 C 224.589844 131.132812 224.46875 130.988281 224.292969 130.875 C 224.109375 130.75 223.894531 130.6875 223.644531 130.6875 C 223.214844 130.6875 222.855469 130.832031 222.5625 131.125 C 222.269531 131.414062 222.125 131.882812 222.125 132.519531 L 222.125 136.144531 L 221.0625 136.144531 L 221.0625 132.101562 C 221.0625 131.632812 220.980469 131.28125 220.8125 131.039062 C 220.644531 130.804688 220.363281 130.6875 219.980469 130.6875 C 219.671875 130.6875 219.394531 130.769531 219.144531 130.9375 C 218.894531 131.09375 218.714844 131.320312 218.605469 131.625 C 218.488281 131.914062 218.4375 132.347656 218.4375 132.914062 L 218.4375 136.144531 Z M 217.375 136.144531 "/>
<path style=" stroke:none;fill-rule:nonzero;fill:rgb(0%,0%,0%);fill-opacity:1;" d="M 228.351562 136.144531 L 227.371094 136.144531 L 227.371094 127.5625 L 228.414062 127.5625 L 228.414062 130.625 C 228.855469 130.070312 229.421875 129.789062 230.121094 129.789062 C 230.507812 129.789062 230.871094 129.867188 231.203125 130.019531 C 231.546875 130.175781 231.835938 130.390625 232.058594 130.664062 C 232.277344 130.945312 232.453125 131.285156 232.578125 131.6875 C 232.703125 132.078125 232.765625 132.492188 232.765625 132.9375 C 232.765625 134.007812 232.5 134.832031 231.976562 135.414062 C 231.445312 136 230.8125 136.289062 230.078125 136.289062 C 229.339844 136.289062 228.765625 135.988281 228.351562 135.375 Z M 228.328125 132.976562 C 228.328125 133.726562 228.433594 134.269531 228.640625 134.601562 C 228.976562 135.144531 229.417969 135.414062 229.976562 135.414062 C 230.445312 135.414062 230.851562 135.21875 231.183594 134.8125 C 231.515625 134.410156 231.683594 133.8125 231.683594 133.019531 C 231.683594 132.21875 231.523438 131.617188 231.203125 131.226562 C 230.882812 130.84375 230.496094 130.644531 230.039062 130.644531 C 229.5625 130.644531 229.164062 130.847656 228.828125 131.25 C 228.496094 131.65625 228.328125 132.226562 228.328125 132.976562 Z M 228.328125 132.976562 "/>
<path style=" stroke:none;fill-rule:nonzero;fill:rgb(0%,0%,0%);fill-opacity:1;" d="M 238.296875 134.144531 L 239.398438 134.269531 C 239.21875 134.910156 238.890625 135.410156 238.421875 135.769531 C 237.960938 136.117188 237.367188 136.289062 236.648438 136.289062 C 235.742188 136.289062 235.023438 136.015625 234.484375 135.457031 C 233.953125 134.890625 233.691406 134.097656 233.691406 133.082031 C 233.691406 132.039062 233.960938 131.238281 234.503906 130.664062 C 235.046875 130.082031 235.742188 129.789062 236.609375 129.789062 C 237.441406 129.789062 238.113281 130.078125 238.628906 130.644531 C 239.15625 131.203125 239.421875 131.992188 239.421875 133.019531 C 239.421875 133.09375 239.421875 133.1875 239.421875 133.3125 L 234.773438 133.3125 C 234.816406 133.992188 235.007812 134.515625 235.359375 134.875 C 235.703125 135.238281 236.140625 135.414062 236.671875 135.414062 C 237.054688 135.414062 237.382812 135.320312 237.648438 135.125 C 237.925781 134.914062 238.140625 134.59375 238.296875 134.144531 Z M 234.835938 132.4375 L 238.316406 132.4375 C 238.273438 131.910156 238.140625 131.515625 237.921875 131.25 C 237.585938 130.847656 237.148438 130.644531 236.609375 130.644531 C 236.117188 130.644531 235.710938 130.8125 235.378906 131.144531 C 235.054688 131.46875 234.878906 131.894531 234.835938 132.4375 Z M 234.835938 132.4375 "/>
<path style=" stroke:none;fill-rule:nonzero;fill:rgb(0%,0%,0%);fill-opacity:1;" d="M 244.761719 136.144531 L 244.761719 135.351562 C 244.355469 135.976562 243.773438 136.289062 243.011719 136.289062 C 242.523438 136.289062 242.074219 136.148438 241.65625 135.875 C 241.242188 135.597656 240.914062 135.21875 240.679688 134.726562 C 240.453125 134.242188 240.34375 133.679688 240.34375 133.039062 C 240.34375 132.414062 240.449219 131.851562 240.65625 131.351562 C 240.867188 130.84375 241.167969 130.453125 241.574219 130.1875 C 241.992188 129.925781 242.453125 129.789062 242.96875 129.789062 C 243.34375 129.789062 243.679688 129.867188 243.96875 130.019531 C 244.261719 130.175781 244.496094 130.382812 244.679688 130.644531 L 244.679688 127.5625 L 245.742188 127.5625 L 245.742188 136.144531 Z M 241.429688 133.039062 C 241.429688 133.832031 241.59375 134.429688 241.929688 134.832031 C 242.261719 135.222656 242.65625 135.414062 243.117188 135.414062 C 243.574219 135.414062 243.960938 135.226562 244.28125 134.851562 C 244.617188 134.476562 244.78125 133.90625 244.78125 133.125 C 244.78125 132.28125 244.617188 131.65625 244.28125 131.25 C 243.949219 130.847656 243.542969 130.644531 243.074219 130.644531 C 242.601562 130.644531 242.203125 130.84375 241.886719 131.226562 C 241.578125 131.617188 241.429688 132.222656 241.429688 133.039062 Z M 241.429688 133.039062 "/>
<path style=" stroke:none;fill-rule:nonzero;fill:rgb(0%,0%,0%);fill-opacity:1;" d="M 251.4375 136.144531 L 251.4375 135.351562 C 251.03125 135.976562 250.445312 136.289062 249.6875 136.289062 C 249.195312 136.289062 248.75 136.148438 248.332031 135.875 C 247.914062 135.597656 247.585938 135.21875 247.351562 134.726562 C 247.128906 134.242188 247.019531 133.679688 247.019531 133.039062 C 247.019531 132.414062 247.125 131.851562 247.332031 131.351562 C 247.539062 130.84375 247.84375 130.453125 248.25 130.1875 C 248.664062 129.925781 249.128906 129.789062 249.644531 129.789062 C 250.019531 129.789062 250.351562 129.867188 250.644531 130.019531 C 250.9375 130.175781 251.171875 130.382812 251.351562 130.644531 L 251.351562 127.5625 L 252.414062 127.5625 L 252.414062 136.144531 Z M 248.101562 133.039062 C 248.101562 133.832031 248.269531 134.429688 248.601562 134.832031 C 248.9375 135.222656 249.332031 135.414062 249.789062 135.414062 C 250.25 135.414062 250.632812 135.226562 250.957031 134.851562 C 251.289062 134.476562 251.457031 133.90625 251.457031 133.125 C 251.457031 132.28125 251.289062 131.65625 250.957031 131.25 C 250.625 130.847656 250.21875 130.644531 249.75 130.644531 C 249.273438 130.644531 248.878906 130.84375 248.5625 131.226562 C 248.253906 131.617188 248.101562 132.222656 248.101562 133.039062 Z M 248.101562 133.039062 "/>
<path style=" stroke:none;fill-rule:nonzero;fill:rgb(0%,0%,0%);fill-opacity:1;" d="M 254.070312 128.769531 L 254.070312 127.5625 L 255.132812 127.5625 L 255.132812 128.769531 Z M 254.070312 136.144531 L 254.070312 129.914062 L 255.132812 129.914062 L 255.132812 136.144531 Z M 254.070312 136.144531 "/>
<path style=" stroke:none;fill-rule:nonzero;fill:rgb(0%,0%,0%);fill-opacity:1;" d="M 256.734375 136.144531 L 256.734375 129.914062 L 257.695312 129.914062 L 257.695312 130.8125 C 258.136719 130.132812 258.796875 129.789062 259.671875 129.789062 C 260.046875 129.789062 260.386719 129.863281 260.695312 130 C 261.011719 130.125 261.246094 130.300781 261.402344 130.519531 C 261.554688 130.726562 261.664062 130.988281 261.734375 131.289062 C 261.777344 131.488281 261.796875 131.828125 261.796875 132.3125 L 261.796875 136.144531 L 260.734375 136.144531 L 260.734375 132.351562 C 260.734375 131.925781 260.695312 131.601562 260.609375 131.394531 C 260.527344 131.1875 260.382812 131.019531 260.171875 130.894531 C 259.964844 130.757812 259.71875 130.6875 259.445312 130.6875 C 258.996094 130.6875 258.609375 130.832031 258.277344 131.125 C 257.953125 131.40625 257.796875 131.945312 257.796875 132.75 L 257.796875 136.144531 Z M 256.734375 136.144531 "/>
<path style=" stroke:none;fill-rule:nonzero;fill:rgb(0%,0%,0%);fill-opacity:1;" d="M 263.222656 136.664062 L 264.242188 136.8125 C 264.285156 137.128906 264.398438 137.359375 264.597656 137.5 C 264.859375 137.691406 265.222656 137.789062 265.679688 137.789062 C 266.164062 137.789062 266.539062 137.691406 266.804688 137.5 C 267.066406 137.300781 267.25 137.03125 267.347656 136.6875 C 267.398438 136.460938 267.421875 136.015625 267.410156 135.332031 C 266.953125 135.875 266.378906 136.144531 265.703125 136.144531 C 264.835938 136.144531 264.171875 135.84375 263.703125 135.226562 C 263.242188 134.601562 263.015625 133.863281 263.015625 133 C 263.015625 132.40625 263.117188 131.851562 263.328125 131.351562 C 263.546875 130.851562 263.859375 130.472656 264.265625 130.207031 C 264.664062 129.929688 265.144531 129.789062 265.703125 129.789062 C 266.4375 129.789062 267.039062 130.082031 267.515625 130.664062 L 267.515625 129.914062 L 268.492188 129.914062 L 268.492188 135.289062 C 268.492188 136.257812 268.390625 136.945312 268.179688 137.351562 C 267.984375 137.753906 267.671875 138.070312 267.242188 138.3125 C 266.828125 138.546875 266.304688 138.664062 265.679688 138.664062 C 264.929688 138.664062 264.328125 138.5 263.867188 138.164062 C 263.421875 137.832031 263.207031 137.332031 263.222656 136.664062 Z M 264.097656 132.914062 C 264.097656 133.738281 264.253906 134.332031 264.578125 134.707031 C 264.894531 135.082031 265.296875 135.269531 265.785156 135.269531 C 266.269531 135.269531 266.679688 135.082031 267.015625 134.707031 C 267.347656 134.332031 267.515625 133.75 267.515625 132.957031 C 267.515625 132.195312 267.335938 131.617188 266.992188 131.226562 C 266.660156 130.84375 266.253906 130.644531 265.785156 130.644531 C 265.3125 130.644531 264.910156 130.84375 264.578125 131.226562 C 264.253906 131.601562 264.097656 132.164062 264.097656 132.914062 Z M 264.097656 132.914062 "/>
<path style=" stroke:none;fill-rule:nonzero;fill:rgb(0%,0%,0%);fill-opacity:1;" d="M 222.363281 174.132812 L 222.363281 166.550781 L 219.550781 166.550781 L 219.550781 165.550781 L 226.339844 165.550781 L 226.339844 166.550781 L 223.507812 166.550781 L 223.507812 174.132812 Z M 222.363281 174.132812 "/>
<path style=" stroke:none;fill-rule:nonzero;fill:rgb(0%,0%,0%);fill-opacity:1;" d="M 230.113281 173.363281 C 229.722656 173.695312 229.347656 173.933594 228.988281 174.070312 C 228.621094 174.207031 228.238281 174.277344 227.820312 174.277344 C 227.136719 174.277344 226.613281 174.113281 226.238281 173.777344 C 225.871094 173.445312 225.695312 173.019531 225.695312 172.488281 C 225.695312 172.183594 225.761719 171.902344 225.902344 171.652344 C 226.039062 171.402344 226.222656 171.207031 226.445312 171.050781 C 226.664062 170.898438 226.914062 170.777344 227.195312 170.695312 C 227.402344 170.652344 227.714844 170.605469 228.132812 170.550781 C 228.992188 170.457031 229.621094 170.332031 230.027344 170.175781 C 230.027344 170.039062 230.027344 169.945312 230.027344 169.902344 C 230.027344 169.476562 229.929688 169.175781 229.738281 169.007812 C 229.457031 168.757812 229.054688 168.632812 228.527344 168.632812 C 228.027344 168.632812 227.660156 168.726562 227.425781 168.902344 C 227.183594 169.070312 227.011719 169.378906 226.902344 169.820312 L 225.882812 169.695312 C 225.964844 169.253906 226.113281 168.898438 226.320312 168.632812 C 226.539062 168.355469 226.851562 168.148438 227.257812 168.007812 C 227.675781 167.855469 228.144531 167.777344 228.675781 167.777344 C 229.214844 167.777344 229.644531 167.839844 229.964844 167.964844 C 230.300781 168.089844 230.539062 168.253906 230.695312 168.445312 C 230.863281 168.628906 230.972656 168.863281 231.027344 169.152344 C 231.070312 169.335938 231.089844 169.652344 231.089844 170.113281 L 231.089844 171.527344 C 231.089844 172.503906 231.113281 173.121094 231.152344 173.382812 C 231.195312 173.648438 231.285156 173.898438 231.425781 174.132812 L 230.320312 174.132812 C 230.207031 173.914062 230.136719 173.652344 230.113281 173.363281 Z M 230.027344 171.007812 C 229.636719 171.164062 229.058594 171.292969 228.300781 171.402344 C 227.867188 171.476562 227.558594 171.550781 227.382812 171.632812 C 227.199219 171.707031 227.058594 171.816406 226.964844 171.964844 C 226.867188 172.121094 226.820312 172.289062 226.820312 172.464844 C 226.820312 172.746094 226.925781 172.980469 227.132812 173.175781 C 227.339844 173.355469 227.652344 173.445312 228.070312 173.445312 C 228.472656 173.445312 228.832031 173.355469 229.152344 173.175781 C 229.472656 172.996094 229.707031 172.753906 229.863281 172.445312 C 229.972656 172.210938 230.027344 171.863281 230.027344 171.402344 Z M 230.027344 171.007812 "/>
<path style=" stroke:none;fill-rule:nonzero;fill:rgb(0%,0%,0%);fill-opacity:1;" d="M 232.703125 174.132812 L 232.703125 167.902344 L 233.660156 167.902344 L 233.660156 168.863281 C 233.894531 168.417969 234.121094 168.128906 234.328125 167.988281 C 234.535156 167.851562 234.765625 167.777344 235.015625 167.777344 C 235.359375 167.777344 235.722656 167.894531 236.097656 168.113281 L 235.722656 169.089844 C 235.472656 168.941406 235.214844 168.863281 234.953125 168.863281 C 234.730469 168.863281 234.519531 168.933594 234.328125 169.070312 C 234.144531 169.210938 234.015625 169.402344 233.933594 169.652344 C 233.816406 170.027344 233.765625 170.441406 233.765625 170.882812 L 233.765625 174.132812 Z M 232.703125 174.132812 "/>
<path style=" stroke:none;fill-rule:nonzero;fill:rgb(0%,0%,0%);fill-opacity:1;" d="M 236.53125 174.652344 L 237.554688 174.800781 C 237.59375 175.117188 237.710938 175.347656 237.90625 175.488281 C 238.167969 175.679688 238.53125 175.777344 238.992188 175.777344 C 239.476562 175.777344 239.851562 175.679688 240.117188 175.488281 C 240.375 175.289062 240.558594 175.019531 240.65625 174.675781 C 240.710938 174.449219 240.730469 174.003906 240.71875 173.320312 C 240.261719 173.863281 239.6875 174.132812 239.011719 174.132812 C 238.148438 174.132812 237.480469 173.832031 237.011719 173.214844 C 236.554688 172.589844 236.324219 171.851562 236.324219 170.988281 C 236.324219 170.394531 236.429688 169.839844 236.636719 169.339844 C 236.855469 168.839844 237.167969 168.460938 237.574219 168.195312 C 237.976562 167.917969 238.453125 167.777344 239.011719 167.777344 C 239.746094 167.777344 240.351562 168.070312 240.824219 168.652344 L 240.824219 167.902344 L 241.804688 167.902344 L 241.804688 173.277344 C 241.804688 174.246094 241.699219 174.933594 241.492188 175.339844 C 241.292969 175.742188 240.980469 176.058594 240.554688 176.300781 C 240.136719 176.535156 239.617188 176.652344 238.992188 176.652344 C 238.242188 176.652344 237.636719 176.488281 237.179688 176.152344 C 236.730469 175.820312 236.515625 175.320312 236.53125 174.652344 Z M 237.40625 170.902344 C 237.40625 171.726562 237.5625 172.320312 237.886719 172.695312 C 238.203125 173.070312 238.605469 173.257812 239.09375 173.257812 C 239.578125 173.257812 239.992188 173.070312 240.324219 172.695312 C 240.65625 172.320312 240.824219 171.738281 240.824219 170.945312 C 240.824219 170.183594 240.648438 169.605469 240.304688 169.214844 C 239.96875 168.832031 239.5625 168.632812 239.09375 168.632812 C 238.621094 168.632812 238.21875 168.832031 237.886719 169.214844 C 237.5625 169.589844 237.40625 170.152344 237.40625 170.902344 Z M 237.40625 170.902344 "/>
<path style=" stroke:none;fill-rule:nonzero;fill:rgb(0%,0%,0%);fill-opacity:1;" d="M 247.644531 172.132812 L 248.75 172.257812 C 248.566406 172.898438 248.238281 173.398438 247.769531 173.757812 C 247.3125 174.105469 246.71875 174.277344 246 174.277344 C 245.09375 174.277344 244.375 174.003906 243.832031 173.445312 C 243.300781 172.878906 243.039062 172.085938 243.039062 171.070312 C 243.039062 170.027344 243.3125 169.226562 243.851562 168.652344 C 244.394531 168.070312 245.09375 167.777344 245.957031 167.777344 C 246.789062 167.777344 247.460938 168.066406 247.976562 168.632812 C 248.503906 169.191406 248.769531 169.980469 248.769531 171.007812 C 248.769531 171.082031 248.769531 171.175781 248.769531 171.300781 L 244.125 171.300781 C 244.164062 171.980469 244.359375 172.503906 244.707031 172.863281 C 245.050781 173.226562 245.488281 173.402344 246.019531 173.402344 C 246.40625 173.402344 246.734375 173.308594 247 173.113281 C 247.273438 172.902344 247.488281 172.582031 247.644531 172.132812 Z M 244.1875 170.425781 L 247.664062 170.425781 C 247.625 169.898438 247.488281 169.503906 247.269531 169.238281 C 246.9375 168.835938 246.5 168.632812 245.957031 168.632812 C 245.46875 168.632812 245.0625 168.800781 244.726562 169.132812 C 244.40625 169.457031 244.226562 169.882812 244.1875 170.425781 Z M 244.1875 170.425781 "/>
<path style=" stroke:none;fill-rule:nonzero;fill:rgb(0%,0%,0%);fill-opacity:1;" d="M 252.382812 173.195312 L 252.527344 174.113281 C 252.21875 174.179688 251.953125 174.214844 251.734375 174.214844 C 251.34375 174.214844 251.046875 174.152344 250.839844 174.027344 C 250.632812 173.902344 250.476562 173.746094 250.382812 173.550781 C 250.296875 173.355469 250.257812 172.945312 250.257812 172.320312 L 250.257812 168.738281 L 249.484375 168.738281 L 249.484375 167.902344 L 250.257812 167.902344 L 250.257812 166.363281 L 251.320312 165.738281 L 251.320312 167.902344 L 252.382812 167.902344 L 252.382812 168.738281 L 251.320312 168.738281 L 251.320312 172.363281 C 251.320312 172.667969 251.328125 172.863281 251.359375 172.945312 C 251.402344 173.027344 251.464844 173.101562 251.546875 173.152344 C 251.632812 173.210938 251.746094 173.238281 251.902344 173.238281 C 252.027344 173.238281 252.183594 173.226562 252.382812 173.195312 Z M 252.382812 173.195312 "/>
<path style=" stroke:none;fill-rule:nonzero;fill:rgb(0%,0%,0%);fill-opacity:1;" d="M 252.984375 172.277344 L 254.027344 172.113281 C 254.078125 172.527344 254.242188 172.851562 254.507812 173.070312 C 254.78125 173.292969 255.15625 173.402344 255.632812 173.402344 C 256.117188 173.402344 256.476562 173.308594 256.714844 173.113281 C 256.949219 172.917969 257.070312 172.691406 257.070312 172.425781 C 257.070312 172.175781 256.964844 171.988281 256.757812 171.863281 C 256.601562 171.769531 256.242188 171.644531 255.671875 171.488281 C 254.890625 171.292969 254.351562 171.128906 254.046875 170.988281 C 253.757812 170.851562 253.53125 170.652344 253.382812 170.402344 C 253.226562 170.152344 253.152344 169.878906 253.152344 169.570312 C 253.152344 169.292969 253.214844 169.039062 253.339844 168.800781 C 253.464844 168.566406 253.636719 168.363281 253.859375 168.195312 C 254.027344 168.085938 254.246094 167.988281 254.527344 167.902344 C 254.820312 167.820312 255.121094 167.777344 255.445312 167.777344 C 255.929688 167.777344 256.351562 167.851562 256.714844 167.988281 C 257.089844 168.128906 257.367188 168.316406 257.546875 168.550781 C 257.726562 168.789062 257.851562 169.105469 257.921875 169.507812 L 256.882812 169.652344 C 256.839844 169.335938 256.699219 169.085938 256.464844 168.902344 C 256.242188 168.726562 255.929688 168.632812 255.527344 168.632812 C 255.039062 168.632812 254.695312 168.714844 254.484375 168.882812 C 254.277344 169.039062 254.171875 169.226562 254.171875 169.445312 C 254.171875 169.585938 254.214844 169.707031 254.296875 169.800781 C 254.382812 169.925781 254.515625 170.023438 254.714844 170.089844 C 254.808594 170.132812 255.117188 170.226562 255.632812 170.363281 C 256.382812 170.558594 256.902344 170.714844 257.195312 170.839844 C 257.496094 170.964844 257.734375 171.152344 257.902344 171.402344 C 258.070312 171.644531 258.152344 171.941406 258.152344 172.300781 C 258.152344 172.664062 258.046875 172.996094 257.839844 173.300781 C 257.632812 173.605469 257.328125 173.851562 256.945312 174.027344 C 256.570312 174.195312 256.132812 174.277344 255.632812 174.277344 C 254.824219 174.277344 254.203125 174.113281 253.777344 173.777344 C 253.359375 173.433594 253.09375 172.933594 252.984375 172.277344 Z M 252.984375 172.277344 "/>
<path style="fill:none;stroke-width:1;stroke-linecap:round;stroke-linejoin:round;stroke:rgb(0%,0%,0%);stroke-opacity:1;stroke-miterlimit:10;" d="M 624.200195 339.600586 L 624.200195 333.155273 " transform="matrix(1.333333,0,0,1.333333,-593.333333,-292)"/>
<path style="fill:none;stroke-width:1;stroke-linecap:butt;stroke-linejoin:miter;stroke:rgb(0%,0%,0%);stroke-opacity:1;stroke-miterlimit:10;" d="M 624.200195 329.15625 L 624.200195 333.155273 M 622.700195 333.155273 L 624.200195 329.15625 L 625.700195 333.155273 " transform="matrix(1.333333,0,0,1.333333,-593.333333,-292)"/>
<path style="fill:none;stroke-width:1;stroke-linecap:round;stroke-linejoin:round;stroke:rgb(0%,0%,0%);stroke-opacity:1;stroke-miterlimit:10;" d="M 624.200195 309.254883 L 624.200195 301.245117 " transform="matrix(1.333333,0,0,1.333333,-593.333333,-292)"/>
<path style="fill:none;stroke-width:1;stroke-linecap:butt;stroke-linejoin:miter;stroke:rgb(0%,0%,0%);stroke-opacity:1;stroke-miterlimit:10;" d="M 624.200195 297.246094 L 624.200195 301.245117 M 622.700195 301.245117 L 624.200195 297.246094 L 625.700195 301.245117 " transform="matrix(1.333333,0,0,1.333333,-593.333333,-292)"/>
<path style="fill-rule:nonzero;fill:rgb(69.803923%,85.09804%,100%);fill-opacity:1;stroke-width:1;stroke-linecap:round;stroke-linejoin:round;stroke:rgb(0%,0%,0%);stroke-opacity:1;stroke-miterlimit:10;" d="M 585.399414 277.344727 L 663.000977 277.344727 L 663.000977 295.344727 L 585.399414 295.344727 Z M 585.399414 277.344727 " transform="matrix(1.333333,0,0,1.333333,-593.333333,-292)"/>
<path style=" stroke:none;fill-rule:nonzero;fill:rgb(0%,0%,0%);fill-opacity:1;" d="M 213.527344 93.597656 L 213.527344 85.011719 L 217.339844 85.011719 C 218.101562 85.011719 218.683594 85.089844 219.089844 85.242188 C 219.492188 85.398438 219.808594 85.667969 220.046875 86.054688 C 220.28125 86.445312 220.402344 86.878906 220.402344 87.347656 C 220.402344 87.960938 220.199219 88.472656 219.796875 88.886719 C 219.40625 89.304688 218.804688 89.570312 217.984375 89.679688 C 218.277344 89.835938 218.507812 89.980469 218.671875 90.117188 C 219.007812 90.425781 219.320312 90.804688 219.609375 91.261719 L 221.109375 93.597656 L 219.671875 93.597656 L 218.527344 91.804688 C 218.203125 91.292969 217.933594 90.902344 217.714844 90.636719 C 217.507812 90.363281 217.308594 90.167969 217.132812 90.054688 C 216.964844 89.945312 216.796875 89.867188 216.632812 89.824219 C 216.492188 89.800781 216.277344 89.785156 215.984375 89.785156 L 214.671875 89.785156 L 214.671875 93.597656 Z M 214.671875 88.804688 L 217.109375 88.804688 C 217.636719 88.804688 218.046875 88.753906 218.339844 88.636719 C 218.632812 88.527344 218.851562 88.355469 219.007812 88.117188 C 219.15625 87.882812 219.234375 87.628906 219.234375 87.347656 C 219.234375 86.945312 219.078125 86.613281 218.777344 86.347656 C 218.484375 86.085938 218.015625 85.949219 217.382812 85.949219 L 214.671875 85.949219 Z M 214.671875 88.804688 "/>
<path style=" stroke:none;fill-rule:nonzero;fill:rgb(0%,0%,0%);fill-opacity:1;" d="M 226.296875 91.597656 L 227.402344 91.722656 C 227.21875 92.363281 226.890625 92.863281 226.421875 93.222656 C 225.964844 93.570312 225.371094 93.742188 224.652344 93.742188 C 223.746094 93.742188 223.027344 93.464844 222.484375 92.910156 C 221.953125 92.339844 221.695312 91.550781 221.695312 90.535156 C 221.695312 89.492188 221.964844 88.691406 222.507812 88.117188 C 223.046875 87.535156 223.746094 87.242188 224.609375 87.242188 C 225.445312 87.242188 226.117188 87.527344 226.632812 88.097656 C 227.15625 88.652344 227.421875 89.445312 227.421875 90.472656 C 227.421875 90.542969 227.421875 90.636719 227.421875 90.761719 L 222.777344 90.761719 C 222.820312 91.445312 223.011719 91.964844 223.359375 92.324219 C 223.703125 92.691406 224.140625 92.867188 224.671875 92.867188 C 225.058594 92.867188 225.386719 92.773438 225.652344 92.574219 C 225.929688 92.367188 226.140625 92.042969 226.296875 91.597656 Z M 222.839844 89.886719 L 226.320312 89.886719 C 226.277344 89.363281 226.140625 88.964844 225.921875 88.699219 C 225.589844 88.300781 225.152344 88.097656 224.609375 88.097656 C 224.121094 88.097656 223.714844 88.261719 223.382812 88.597656 C 223.058594 88.917969 222.882812 89.347656 222.839844 89.886719 Z M 222.839844 89.886719 "/>
<path style=" stroke:none;fill-rule:nonzero;fill:rgb(0%,0%,0%);fill-opacity:1;" d="M 232.785156 91.324219 L 233.828125 91.449219 C 233.710938 92.175781 233.421875 92.738281 232.953125 93.136719 C 232.476562 93.542969 231.898438 93.742188 231.222656 93.742188 C 230.375 93.742188 229.691406 93.464844 229.179688 92.910156 C 228.664062 92.355469 228.410156 91.554688 228.410156 90.511719 C 228.410156 89.835938 228.519531 89.242188 228.742188 88.742188 C 228.960938 88.242188 229.296875 87.867188 229.742188 87.617188 C 230.203125 87.367188 230.703125 87.242188 231.242188 87.242188 C 231.910156 87.242188 232.457031 87.417969 232.890625 87.761719 C 233.316406 88.097656 233.597656 88.574219 233.722656 89.199219 L 232.703125 89.367188 C 232.601562 88.949219 232.429688 88.636719 232.179688 88.429688 C 231.929688 88.210938 231.628906 88.097656 231.285156 88.097656 C 230.742188 88.097656 230.304688 88.292969 229.972656 88.679688 C 229.648438 89.054688 229.492188 89.652344 229.492188 90.472656 C 229.492188 91.320312 229.648438 91.929688 229.972656 92.304688 C 230.289062 92.679688 230.707031 92.867188 231.222656 92.867188 C 231.640625 92.867188 231.984375 92.742188 232.265625 92.492188 C 232.539062 92.242188 232.710938 91.855469 232.785156 91.324219 Z M 232.785156 91.324219 "/>
<path style=" stroke:none;fill-rule:nonzero;fill:rgb(0%,0%,0%);fill-opacity:1;" d="M 238.804688 93.597656 L 238.804688 92.679688 C 238.316406 93.386719 237.660156 93.742188 236.828125 93.742188 C 236.460938 93.742188 236.125 93.667969 235.804688 93.535156 C 235.484375 93.382812 235.242188 93.199219 235.078125 92.992188 C 234.921875 92.785156 234.816406 92.527344 234.765625 92.222656 C 234.722656 92.011719 234.703125 91.679688 234.703125 91.222656 L 234.703125 87.367188 L 235.742188 87.367188 L 235.742188 90.824219 C 235.742188 91.382812 235.769531 91.753906 235.828125 91.929688 C 235.878906 92.210938 236.015625 92.429688 236.222656 92.597656 C 236.441406 92.753906 236.710938 92.824219 237.035156 92.824219 C 237.351562 92.824219 237.648438 92.753906 237.929688 92.597656 C 238.207031 92.429688 238.398438 92.210938 238.515625 91.929688 C 238.625 91.652344 238.679688 91.242188 238.679688 90.699219 L 238.679688 87.367188 L 239.742188 87.367188 L 239.742188 93.597656 Z M 238.804688 93.597656 "/>
<path style=" stroke:none;fill-rule:nonzero;fill:rgb(0%,0%,0%);fill-opacity:1;" d="M 241.375 93.597656 L 241.375 87.367188 L 242.335938 87.367188 L 242.335938 88.324219 C 242.570312 87.882812 242.792969 87.589844 243 87.449219 C 243.210938 87.316406 243.4375 87.242188 243.6875 87.242188 C 244.03125 87.242188 244.398438 87.355469 244.773438 87.574219 L 244.398438 88.554688 C 244.148438 88.402344 243.886719 88.324219 243.625 88.324219 C 243.402344 88.324219 243.195312 88.398438 243 88.535156 C 242.820312 88.675781 242.6875 88.867188 242.605469 89.117188 C 242.492188 89.492188 242.4375 89.902344 242.4375 90.347656 L 242.4375 93.597656 Z M 241.375 93.597656 "/>
<path style=" stroke:none;fill-rule:nonzero;fill:rgb(0%,0%,0%);fill-opacity:1;" d="M 245.371094 93.597656 L 245.371094 87.367188 L 246.332031 87.367188 L 246.332031 88.324219 C 246.566406 87.882812 246.789062 87.589844 246.996094 87.449219 C 247.207031 87.316406 247.433594 87.242188 247.683594 87.242188 C 248.027344 87.242188 248.394531 87.355469 248.769531 87.574219 L 248.394531 88.554688 C 248.144531 88.402344 247.882812 88.324219 247.621094 88.324219 C 247.398438 88.324219 247.191406 88.398438 246.996094 88.535156 C 246.816406 88.675781 246.683594 88.867188 246.601562 89.117188 C 246.488281 89.492188 246.433594 89.902344 246.433594 90.347656 L 246.433594 93.597656 Z M 245.371094 93.597656 "/>
<path style=" stroke:none;fill-rule:nonzero;fill:rgb(0%,0%,0%);fill-opacity:1;" d="M 253.640625 91.597656 L 254.742188 91.722656 C 254.5625 92.363281 254.234375 92.863281 253.765625 93.222656 C 253.304688 93.570312 252.710938 93.742188 251.992188 93.742188 C 251.085938 93.742188 250.367188 93.464844 249.828125 92.910156 C 249.296875 92.339844 249.035156 91.550781 249.035156 90.535156 C 249.035156 89.492188 249.304688 88.691406 249.847656 88.117188 C 250.390625 87.535156 251.085938 87.242188 251.953125 87.242188 C 252.785156 87.242188 253.457031 87.527344 253.972656 88.097656 C 254.5 88.652344 254.765625 89.445312 254.765625 90.472656 C 254.765625 90.542969 254.765625 90.636719 254.765625 90.761719 L 250.117188 90.761719 C 250.160156 91.445312 250.351562 91.964844 250.703125 92.324219 C 251.046875 92.691406 251.484375 92.867188 252.015625 92.867188 C 252.398438 92.867188 252.726562 92.773438 252.992188 92.574219 C 253.269531 92.367188 253.484375 92.042969 253.640625 91.597656 Z M 250.179688 89.886719 L 253.660156 89.886719 C 253.617188 89.363281 253.484375 88.964844 253.265625 88.699219 C 252.929688 88.300781 252.492188 88.097656 251.953125 88.097656 C 251.460938 88.097656 251.054688 88.261719 250.722656 88.597656 C 250.398438 88.917969 250.222656 89.347656 250.179688 89.886719 Z M 250.179688 89.886719 "/>
<path style=" stroke:none;fill-rule:nonzero;fill:rgb(0%,0%,0%);fill-opacity:1;" d="M 256.0625 93.597656 L 256.0625 87.367188 L 257.023438 87.367188 L 257.023438 88.261719 C 257.464844 87.585938 258.125 87.242188 259 87.242188 C 259.375 87.242188 259.714844 87.316406 260.023438 87.449219 C 260.339844 87.574219 260.574219 87.753906 260.730469 87.972656 C 260.882812 88.179688 260.992188 88.441406 261.0625 88.742188 C 261.105469 88.941406 261.125 89.277344 261.125 89.761719 L 261.125 93.597656 L 260.0625 93.597656 L 260.0625 89.804688 C 260.0625 89.378906 260.023438 89.054688 259.9375 88.847656 C 259.855469 88.636719 259.710938 88.472656 259.5 88.347656 C 259.292969 88.210938 259.046875 88.136719 258.773438 88.136719 C 258.324219 88.136719 257.9375 88.285156 257.605469 88.574219 C 257.28125 88.855469 257.125 89.398438 257.125 90.199219 L 257.125 93.597656 Z M 256.0625 93.597656 "/>
<path style=" stroke:none;fill-rule:nonzero;fill:rgb(0%,0%,0%);fill-opacity:1;" d="M 265.050781 92.660156 L 265.195312 93.574219 C 264.890625 93.644531 264.625 93.679688 264.40625 93.679688 C 264.015625 93.679688 263.71875 93.617188 263.507812 93.492188 C 263.300781 93.367188 263.144531 93.210938 263.050781 93.011719 C 262.96875 92.820312 262.925781 92.410156 262.925781 91.785156 L 262.925781 88.199219 L 262.15625 88.199219 L 262.15625 87.367188 L 262.925781 87.367188 L 262.925781 85.824219 L 263.988281 85.199219 L 263.988281 87.367188 L 265.050781 87.367188 L 265.050781 88.199219 L 263.988281 88.199219 L 263.988281 91.824219 C 263.988281 92.132812 264 92.324219 264.03125 92.410156 C 264.070312 92.492188 264.132812 92.566406 264.21875 92.617188 C 264.300781 92.675781 264.414062 92.699219 264.570312 92.699219 C 264.695312 92.699219 264.851562 92.691406 265.050781 92.660156 Z M 265.050781 92.660156 "/>
<g clip-path="url(#clip2)" clip-rule="nonzero">
<path style=" stroke:none;fill-rule:nonzero;fill:rgb(0%,0%,0%);fill-opacity:1;" d="M 305.484375 89.984375 L 307.859375 87.609375 C 307.984375 87.460938 308.023438 87.441406 308.023438 87.359375 C 308.023438 87.210938 307.898438 87.109375 307.773438 87.109375 C 307.691406 87.109375 307.628906 87.148438 307.523438 87.273438 L 305.128906 89.648438 L 302.734375 87.273438 C 302.609375 87.128906 302.566406 87.109375 302.484375 87.109375 C 302.359375 87.109375 302.234375 87.210938 302.234375 87.359375 C 302.234375 87.441406 302.296875 87.503906 302.398438 87.609375 L 304.773438 89.984375 L 302.398438 92.378906 C 302.273438 92.484375 302.234375 92.566406 302.234375 92.628906 C 302.234375 92.773438 302.359375 92.878906 302.484375 92.878906 C 302.566406 92.878906 302.609375 92.859375 302.734375 92.710938 L 305.128906 90.335938 L 307.523438 92.710938 C 307.628906 92.835938 307.710938 92.878906 307.773438 92.878906 C 307.921875 92.878906 308.023438 92.773438 308.023438 92.628906 C 308.023438 92.546875 307.984375 92.523438 307.859375 92.378906 Z M 305.484375 89.984375 "/>
<path style=" stroke:none;fill-rule:nonzero;fill:rgb(0%,0%,0%);fill-opacity:1;" d="M 305.484375 89.984375 L 307.859375 87.609375 C 307.984375 87.460938 308.023438 87.441406 308.023438 87.359375 C 308.023438 87.210938 307.898438 87.109375 307.773438 87.109375 C 307.691406 87.109375 307.628906 87.148438 307.523438 87.273438 L 305.128906 89.648438 L 302.734375 87.273438 C 302.609375 87.128906 302.566406 87.109375 302.484375 87.109375 C 302.359375 87.109375 302.234375 87.210938 302.234375 87.359375 C 302.234375 87.441406 302.296875 87.503906 302.398438 87.609375 L 304.773438 89.984375 L 302.398438 92.378906 C 302.273438 92.484375 302.234375 92.566406 302.234375 92.628906 C 302.234375 92.773438 302.359375 92.878906 302.484375 92.878906 C 302.566406 92.878906 302.609375 92.859375 302.734375 92.710938 L 305.128906 90.335938 L 307.523438 92.710938 C 307.628906 92.835938 307.710938 92.878906 307.773438 92.878906 C 307.921875 92.878906 308.023438 92.773438 308.023438 92.628906 C 308.023438 92.546875 307.984375 92.523438 307.859375 92.378906 Z M 305.484375 89.984375 "/>
</g>
<path style=" stroke:none;fill-rule:nonzero;fill:rgb(0%,0%,0%);fill-opacity:1;" d="M 317.386719 91.730469 C 317.304688 91.835938 317.222656 91.9375 317.136719 92.042969 C 316.785156 92.480469 316.574219 92.667969 316.410156 92.667969 C 316.261719 92.667969 316.222656 92.5625 316.222656 92.460938 C 316.222656 92.355469 316.261719 92.148438 316.386719 91.730469 L 317.054688 89.292969 C 317.117188 89.042969 317.179688 88.773438 317.179688 88.5625 C 317.179688 88.125 316.910156 87.835938 316.386719 87.835938 C 315.617188 87.835938 314.824219 88.5625 313.617188 90.480469 L 314.429688 87.855469 L 314.367188 87.835938 C 313.742188 87.960938 313.410156 88.023438 312.429688 88.210938 L 312.429688 88.398438 C 313.035156 88.417969 313.222656 88.480469 313.222656 88.730469 C 313.222656 88.792969 313.199219 88.875 313.179688 88.917969 L 312.035156 93.125 L 312.929688 93.125 C 313.492188 91.230469 313.597656 90.960938 314.136719 90.148438 C 314.886719 89.042969 315.429688 88.4375 315.910156 88.4375 C 316.097656 88.4375 316.199219 88.585938 316.199219 88.792969 C 316.199219 88.9375 316.117188 89.375 316.035156 89.75 L 315.511719 91.6875 C 315.324219 92.3125 315.304688 92.460938 315.304688 92.585938 C 315.304688 93.042969 315.574219 93.230469 315.867188 93.230469 C 316.429688 93.230469 316.742188 93 317.554688 91.875 Z M 317.386719 91.730469 "/>
<path style="fill:none;stroke-width:1;stroke-linecap:round;stroke-linejoin:round;stroke:rgb(0%,0%,0%);stroke-opacity:1;stroke-miterlimit:10;" d="M 585.399414 245.43457 L 663.000977 245.43457 L 663.000977 263.43457 L 585.399414 263.43457 Z M 585.399414 245.43457 " transform="matrix(1.333333,0,0,1.333333,-593.333333,-292)"/>
<path style=" stroke:none;fill-rule:nonzero;fill:rgb(0%,0%,0%);fill-opacity:1;" d="M 231.914062 51.046875 L 231.914062 42.464844 L 237.707031 42.464844 L 237.707031 43.464844 L 233.0625 43.464844 L 233.0625 46.132812 L 237.082031 46.132812 L 237.082031 47.152344 L 233.0625 47.152344 L 233.0625 51.046875 Z M 231.914062 51.046875 "/>
<path style=" stroke:none;fill-rule:nonzero;fill:rgb(0%,0%,0%);fill-opacity:1;" d="M 245.328125 48.027344 L 246.453125 48.320312 C 246.214844 49.25 245.785156 49.964844 245.160156 50.464844 C 244.546875 50.953125 243.792969 51.195312 242.890625 51.195312 C 241.972656 51.195312 241.222656 51.007812 240.640625 50.632812 C 240.058594 50.257812 239.609375 49.714844 239.308594 49.007812 C 239.015625 48.289062 238.871094 47.515625 238.871094 46.695312 C 238.871094 45.792969 239.035156 45.007812 239.371094 44.339844 C 239.714844 43.671875 240.203125 43.171875 240.828125 42.839844 C 241.464844 42.496094 242.160156 42.320312 242.910156 42.320312 C 243.769531 42.320312 244.496094 42.542969 245.078125 42.984375 C 245.671875 43.417969 246.082031 44.027344 246.308594 44.820312 L 245.183594 45.070312 C 244.984375 44.445312 244.703125 43.996094 244.328125 43.714844 C 243.953125 43.421875 243.472656 43.277344 242.890625 43.277344 C 242.234375 43.277344 241.6875 43.4375 241.246094 43.757812 C 240.796875 44.078125 240.484375 44.507812 240.308594 45.046875 C 240.125 45.578125 240.035156 46.121094 240.035156 46.671875 C 240.035156 47.414062 240.140625 48.058594 240.347656 48.609375 C 240.566406 49.152344 240.902344 49.558594 241.347656 49.820312 C 241.792969 50.085938 242.277344 50.214844 242.808594 50.214844 C 243.441406 50.214844 243.980469 50.039062 244.410156 49.671875 C 244.855469 49.296875 245.160156 48.75 245.328125 48.027344 Z M 245.328125 48.027344 "/>
<path style="fill:none;stroke-width:1;stroke-linecap:round;stroke-linejoin:round;stroke:rgb(0%,0%,0%);stroke-opacity:1;stroke-miterlimit:10;" d="M 624.200195 277.344727 L 624.200195 269.332031 " transform="matrix(1.333333,0,0,1.333333,-593.333333,-292)"/>
<path style="fill:none;stroke-width:1;stroke-linecap:butt;stroke-linejoin:miter;stroke:rgb(0%,0%,0%);stroke-opacity:1;stroke-miterlimit:10;" d="M 624.200195 265.333008 L 624.200195 269.332031 M 622.700195 269.332031 L 624.200195 265.333008 L 625.700195 269.332031 " transform="matrix(1.333333,0,0,1.333333,-593.333333,-292)"/>
</g>
</svg>
